<svg width="28" height="28" viewBox="0 0 28 28" fill="none" xmlns="http://www.w3.org/2000/svg">
<path d="M12.5 19.6C12.5 20.4285 13.1716 21.1 14 21.1C14.8284 21.1 15.5 20.4285 15.5 19.6V14C15.5 13.1716 14.8284 12.5 14 12.5C13.1716 12.5 12.5 13.1716 12.5 14V19.6ZM14 6.90003C13.1716 6.90003 12.5 7.5716 12.5 8.40003C12.5 9.22846 13.1716 9.90003 14 9.90003H14.014C14.8424 9.90003 15.514 9.22846 15.514 8.40003C15.514 7.5716 14.8424 6.90003 14.014 6.90003H14ZM26.5 14C26.5 20.9036 20.9036 26.5 14 26.5C7.09644 26.5 1.5 20.9036 1.5 14C1.5 7.09647 7.09644 1.50003 14 1.50003C20.9036 1.50003 26.5 7.09647 26.5 14Z" stroke="#0D6EFD" stroke-width="3" stroke-linecap="round" stroke-linejoin="round"/>
</svg>
