<?xml version="1.0" encoding="utf-8"?>
<!-- Generator: Adobe Illustrator 27.5.0, SVG Export Plug-In . SVG Version: 6.00 Build 0)  -->
<svg version="1.1" xmlns="http://www.w3.org/2000/svg" xmlns:xlink="http://www.w3.org/1999/xlink" x="0px" y="0px"
	 viewBox="0 0 500 500" style="enable-background:new 0 0 500 500;" xml:space="preserve">
<g id="BACKGROUND">
	<rect id="XMLID_17_" style="fill:#FFFFFF;" width="500" height="500"/>
</g>
<g id="OBJECTS">
	<g>
		<path style="stroke:#000000;stroke-linecap:round;stroke-linejoin:round;stroke-miterlimit:10;" d="M383.895,157.14
			c0.036,1.458,0.096,2.925,0.409,4.35c0.313,1.425,0.893,2.817,1.863,3.906c0.305,0.343,0.663,0.663,1.102,0.797
			c0.086,0.026,0.181,0.045,0.264,0.012c0.104-0.04,0.166-0.148,0.209-0.251c0.27-0.641,0.175-1.369,0.068-2.056
			c-0.405-2.598-0.93-5.178-1.571-7.729"/>
		<path style="stroke:#000000;stroke-linecap:round;stroke-linejoin:round;stroke-miterlimit:10;" d="M389.552,158.2
			c0.036,1.458,0.096,2.925,0.409,4.35s0.893,2.817,1.863,3.906c0.305,0.343,0.663,0.663,1.102,0.797
			c0.086,0.026,0.18,0.045,0.264,0.012c0.104-0.04,0.166-0.148,0.209-0.251c0.269-0.641,0.175-1.369,0.068-2.055
			c-0.405-2.598-0.93-5.178-1.571-7.729"/>
		<path style="stroke:#000000;stroke-linecap:round;stroke-linejoin:round;stroke-miterlimit:10;" d="M394.737,157.493
			c0.036,1.458,0.096,2.925,0.409,4.35s0.893,2.817,1.863,3.906c0.305,0.343,0.663,0.663,1.102,0.797
			c0.086,0.026,0.181,0.044,0.264,0.012c0.104-0.04,0.166-0.148,0.209-0.251c0.27-0.641,0.175-1.369,0.068-2.055
			c-0.405-2.599-0.93-5.178-1.571-7.729"/>
		<g>
			<path style="stroke:#000000;stroke-linecap:round;stroke-linejoin:round;stroke-miterlimit:10;" d="M424.512,109.433
				c0,0-17.454-11.024-40.649-2.526c0.23,8.497,17.224,19.521,17.224,19.521L424.512,109.433z"/>
			<path style="fill:#FFFFFF;stroke:#000000;stroke-linecap:round;stroke-linejoin:round;stroke-miterlimit:10;" d="M388.988,98.116
				c0,0,0.919,12.99,0.131,15.614c-0.787,2.624-32.41,10.628-33.46,29.654c31.36,13.515,91.719,2.493,91.719,2.493
				s0.426-10.5-7.873-18.108c-9.447-8.66-23.881-8.923-25.98-13.121c-2.099-4.199-1.181-18.764-1.181-18.764"/>
			<path style="stroke:#000000;stroke-linecap:round;stroke-linejoin:round;stroke-miterlimit:10;" d="M383.862,106.907
				c-1.401-0.64-5.971,13.09-5.971,13.09s9.416,10.105,30.085,11.024c20.669,0.919,22.506-9.186,22.506-9.186l-5.971-12.401
				C424.512,109.433,415.555,121.375,383.862,106.907z"/>
			<path style="stroke:#000000;stroke-linecap:round;stroke-linejoin:round;stroke-miterlimit:10;" d="M377.253,87.826
				c-1.964,2.549-4.809,4.407-7.934,5.179c-1.005,0.248-2.06,0.387-3.077,0.19c-2.188-0.424-3.873-2.439-4.235-4.638
				c-0.362-2.199,0.457-4.486,1.869-6.211c-6.443-0.998-11.693-7.111-11.706-13.631c-0.001-0.632,0.046-1.285,0.339-1.844
				c0.743-1.421,2.706-1.702,3.75-2.918c-2.376-0.267-4.584-1.744-5.737-3.839c-1.153-2.094-1.221-4.75-0.177-6.901
				c1.642-3.379,4.624-5.544,8.362-5.917c-2.038-3.331-3.541-7.335-2.523-11.105c1.018-3.77,5.462-6.709,8.955-4.962
				c0.688-4.606,3.673-8.957,7.998-10.683c4.325-1.726,9.847-0.385,12.438,3.485c1.086-2.894,4.019-4.994,7.109-5.089
				c3.089-0.095,6.147,1.82,7.408,4.642c0.64-5.557,5.639-10.287,11.224-10.62c5.584-0.332,11.109,3.772,12.403,9.214
				c4.669,1.979,7.249,7.868,5.536,12.642c2.566-1.159,5.73-0.871,8.044,0.732c2.314,1.603,3.697,4.464,3.514,7.273
				c-0.062,0.954-1.222,2.107-1.702,1.28c2.456,0.072,4.788,1.435,5.81,3.669c1.022,2.234,0.663,5.035-0.888,6.94
				c3.825,1.119,5.961,5.772,4.884,9.609c-1.078,3.837-4.793,6.589-8.734,7.188c2.124,2.198,2.499,5.88,0.86,8.46
				c-1.638,2.58-5.13,3.808-8.023,2.821c-0.07,4.958-4.092,9.565-8.995,10.304s-10.104-2.478-11.632-7.195"/>
			<path style="fill:#FFFFFF;stroke:#000000;stroke-linecap:round;stroke-linejoin:round;stroke-miterlimit:10;" d="M373.123,59.694
				c-1.908-1.904-5.398-1.297-7.178,0.728c-1.78,2.025-2.136,4.962-1.792,7.636c0.177,1.376,0.54,2.78,1.412,3.859
				c1.015,1.254,2.695,1.936,4.297,1.742c1.602-0.193,3.072-1.256,3.758-2.715"/>
			<path style="fill:#FFFFFF;stroke:#000000;stroke-linecap:round;stroke-linejoin:round;stroke-miterlimit:10;" d="M426.2,57.361
				c1.908-1.904,5.398-1.297,7.178,0.728c1.78,2.025,2.136,4.962,1.792,7.636c-0.177,1.376-0.54,2.78-1.412,3.859
				c-1.015,1.254-2.695,1.936-4.297,1.742c-1.602-0.194-3.072-1.256-3.758-2.715"/>
			<path style="fill:#FFFFFF;stroke:#000000;stroke-linecap:round;stroke-linejoin:round;stroke-miterlimit:10;" d="M425.466,48.386
				c2.649,9.783,3.277,21.259,0.407,30.979c-2.743,9.291-7.534,14.775-18.279,18.429c-9.172,3.118-28.366,0.859-31.614-8.445
				c-3.905-11.187-5.301-23.078-2.926-34.687c0,0,17.704-3.662,34.037-13.329C413.758,49,425.466,48.386,425.466,48.386z"/>
			<path style="fill:#FFFFFF;stroke:#000000;stroke-linecap:round;stroke-linejoin:round;stroke-miterlimit:10;" d="M388.954,65.336
				c0.122,0.777,0.622,1.477,1.278,1.691c0.291,0.095,0.631,0.086,0.865-0.137c0.178-0.169,0.267-0.429,0.345-0.68
				c0.166-0.533,0.317-1.104,0.22-1.66C391.28,62.385,388.576,62.937,388.954,65.336z"/>
			<path style="fill:#FFFFFF;stroke:#000000;stroke-linecap:round;stroke-linejoin:round;stroke-miterlimit:10;" d="M407.47,65.336
				c0.122,0.777,0.622,1.477,1.278,1.691c0.291,0.095,0.63,0.086,0.865-0.137c0.178-0.169,0.267-0.429,0.345-0.68
				c0.166-0.533,0.317-1.104,0.22-1.66C409.796,62.385,407.092,62.937,407.47,65.336z"/>
			<path style="fill:none;stroke:#000000;stroke-linecap:round;stroke-linejoin:round;stroke-miterlimit:10;" d="M407.364,74.545
				c0.344,0.804,0.689,1.69,0.449,2.531c-3.299,0.559-6.598,1.117-9.897,1.676c-0.207-1.588-0.354-17.26,1.498-18.833
				c1.47-1.248,3.423,4.562,3.964,5.717C404.758,68.582,406.086,71.552,407.364,74.545z"/>
			<path style="stroke:#000000;stroke-linecap:round;stroke-linejoin:round;stroke-miterlimit:10;" d="M395.167,53.587
				c-0.656-0.262-10.367,0.787-10.63,1.575c-0.262,0.787,0.394,2.1,0.394,2.1s10.236-0.919,10.499-1.312
				C395.691,55.555,395.167,53.587,395.167,53.587z"/>
			<path style="stroke:#000000;stroke-linecap:round;stroke-linejoin:round;stroke-miterlimit:10;" d="M416.016,57.18
				c-0.605-0.366-10.358-0.907-10.745-0.173c-0.387,0.734,0.047,2.136,0.047,2.136s10.25,0.756,10.572,0.41
				C416.214,59.208,416.016,57.18,416.016,57.18z"/>
			<path style="fill:#FFFFFF;stroke:#000000;stroke-linecap:round;stroke-linejoin:round;stroke-miterlimit:10;" d="M394.293,82.776
				c0,0,2.107,2.427,3.579,3.002c1.472,0.575,4.519-1.687,4.519-1.687"/>
			<path style="fill:#FFFFFF;stroke:#000000;stroke-linecap:round;stroke-linejoin:round;stroke-miterlimit:10;" d="M373.425,46.667
				c0,0,29.333-23.333,48.667-6C414.425,21.333,382.758,22,373.425,46.667z"/>
			<path style="fill:#FFFFFF;stroke:#000000;stroke-linecap:round;stroke-linejoin:round;stroke-miterlimit:10;" d="M367.257,63.232
				c0,0,3.894-1.185,2.37,5.587"/>
			<path style="fill:#FFFFFF;stroke:#000000;stroke-linecap:round;stroke-linejoin:round;stroke-miterlimit:10;" d="M432.264,60.693
				c0,0-3.724-2.032-2.201,5.587"/>
			<path style="fill:#FFFFFF;stroke:#000000;stroke-linecap:round;stroke-linejoin:round;stroke-miterlimit:10;" d="M384.521,68.28
				c-1.708,0.181-3.405,0.478-5.073,0.887"/>
			<path style="fill:#FFFFFF;stroke:#000000;stroke-linecap:round;stroke-linejoin:round;stroke-miterlimit:10;" d="M385.196,70.501
				c-1.403,0.67-2.717,1.527-3.897,2.54"/>
			<path style="fill:#FFFFFF;stroke:#000000;stroke-linecap:round;stroke-linejoin:round;stroke-miterlimit:10;" d="M416.859,67.128
				c1.382-0.084,2.783,0.148,4.064,0.673"/>
			<path style="fill:#FFFFFF;stroke:#000000;stroke-linecap:round;stroke-linejoin:round;stroke-miterlimit:10;" d="M416.705,69.816
				c0.834,0.709,1.805,1.256,2.843,1.6"/>
			<path style="stroke:#000000;stroke-linecap:round;stroke-linejoin:round;stroke-miterlimit:10;" d="M382.025,110.352
				c0,0-3.904,32.611,1.378,48.228c8.268,4.823,14.928,0.23,14.928,0.23s-7.119-30.085-1.148-45.702"/>
			<polyline style="fill:none;stroke:#000000;stroke-linecap:round;stroke-linejoin:round;stroke-miterlimit:10;" points="
				357.944,136.193 365.261,134.902 364.114,141.646 370.857,144.659 366.696,147.098 			"/>
			<polyline style="fill:none;stroke:#000000;stroke-linecap:round;stroke-linejoin:round;stroke-miterlimit:10;" points="
				370.427,123.997 374.875,130.885 379.179,121.128 			"/>
			<polyline style="fill:none;stroke:#000000;stroke-linecap:round;stroke-linejoin:round;stroke-miterlimit:10;" points="
				405.293,149.968 408.019,143.368 402.423,145.089 398.262,139.063 395.249,144.516 			"/>
			<polygon style="fill:none;stroke:#000000;stroke-linecap:round;stroke-linejoin:round;stroke-miterlimit:10;" points="
				423.515,135.476 418.206,133.18 419.498,138.346 414.619,141.933 420.646,143.081 423.085,148.676 426.528,143.224 
				431.837,142.937 427.82,138.633 428.537,132.893 			"/>
			<polyline style="fill:none;stroke:#000000;stroke-linecap:round;stroke-linejoin:round;stroke-miterlimit:10;" points="
				438.294,126.867 435.281,133.898 443.172,131.889 			"/>
			<polyline style="fill:none;stroke:#000000;stroke-linecap:round;stroke-linejoin:round;stroke-miterlimit:10;" points="
				442.025,146.237 440.59,140.498 444.894,142.363 446.903,141.072 			"/>
		</g>
	</g>
	<g>
		<path style="fill:#FFFFFF;stroke:#000000;stroke-linecap:round;stroke-linejoin:round;stroke-miterlimit:10;" d="M237.798,100.183
			c0,0,0.661,10.924-0.127,13.548c-0.787,2.624-32.41,10.628-33.46,29.654c31.36,13.515,91.719,2.493,91.719,2.493
			s0.426-10.5-7.873-18.108c-9.447-8.66-23.881-8.923-25.98-13.121c-2.099-4.199-1.352-15.04-1.352-15.04"/>
		<path style="fill:#FFFFFF;stroke:#000000;stroke-linecap:round;stroke-linejoin:round;stroke-miterlimit:10;" d="M222.042,60.081
			c0,0-5.677-4.866-8.11,1.892s-0.541,21.357,8.11,16.221"/>
		<path style="fill:#FFFFFF;stroke:#000000;stroke-linecap:round;stroke-linejoin:round;stroke-miterlimit:10;" d="M275.673,60.081
			c0,0,5.677-4.866,8.11,1.892c2.433,6.759,0.541,21.357-8.11,16.221"/>
		<path style="fill:#FFFFFF;stroke:#000000;stroke-linecap:round;stroke-linejoin:round;stroke-miterlimit:10;" d="M274.017,48.386
			c2.649,9.783,2.76,18.72-0.11,28.44c-2.743,9.291-8.884,20.491-16.335,24.36c-8.597,4.464-22.64,1.29-31.668-13.756
			c-6.096-10.16-5.697-26.824-3.322-38.432c0,0,7.282-15.201,26.185-15.757C266.613,32.716,274.017,48.386,274.017,48.386z"/>
		<path style="fill:#FFFFFF;stroke:#000000;stroke-linecap:round;stroke-linejoin:round;stroke-miterlimit:10;" d="M237.506,65.336
			c0.122,0.777,0.622,1.477,1.278,1.691c0.291,0.095,0.631,0.086,0.865-0.137c0.178-0.169,0.267-0.429,0.345-0.68
			c0.166-0.533,0.317-1.104,0.219-1.66C239.831,62.385,237.127,62.937,237.506,65.336z"/>
		<path style="fill:#FFFFFF;stroke:#000000;stroke-linecap:round;stroke-linejoin:round;stroke-miterlimit:10;" d="M256.022,65.336
			c0.122,0.777,0.622,1.477,1.278,1.691c0.291,0.095,0.631,0.086,0.865-0.137c0.178-0.169,0.267-0.429,0.345-0.68
			c0.166-0.533,0.317-1.104,0.22-1.66C258.348,62.385,255.643,62.937,256.022,65.336z"/>
		<path style="stroke:#000000;stroke-linecap:round;stroke-linejoin:round;stroke-miterlimit:10;" d="M223.394,52.512
			c0,0,0.541,29.738,7.84,34.604c8.11-3.785,17.572-9.192,17.572-9.192l15.95,8.381c0,0,7.84-5.137,8.651-12.977
			c0.811-7.84,3.785-24.331,3.785-24.331s0.541,10.543-1.081,24.872c-1.622,14.328-3.514,30.549-7.299,34.063
			c-3.785,3.515-32.712,2.974-37.307,0.27s-8.651-11.625-10.273-31.36C219.924,60.946,223.394,52.512,223.394,52.512z"/>
		<path style="fill:#FFFFFF;stroke:#000000;stroke-linecap:round;stroke-linejoin:round;stroke-miterlimit:10;" d="M246.373,57.108
			c0,0-4.055,22.438-1.622,22.979c2.433,0.541,8.11,1.081,8.651-2.703"/>
		<path style="fill:#FFFFFF;stroke:#000000;stroke-linecap:round;stroke-linejoin:round;stroke-miterlimit:10;" d="M242.01,86.788
			l6.28-0.484l7.246,0.387c0,0,2.466,2.201-6.763,2.322C241.37,89.11,242.01,86.788,242.01,86.788z"/>
		<path style="stroke:#000000;stroke-linecap:round;stroke-linejoin:round;stroke-miterlimit:10;" d="M221.501,73.599
			c0,0-3.244-29.467-1.622-36.226c5.948-4.596,10.003-4.866,10.003-4.866s5.948-12.166,20.546-12.166
			c14.599,0,22.709,4.596,22.709,4.596l-1.352,8.651c0,0,6.488,1.892,7.029,10.814c0.541,8.921-3.514,31.36-3.514,31.36
			s1.622-27.575-8.11-34.334c-4.556-3.164-12.977,0.811-17.032,0.811c-4.055,0-12.436-4.326-17.572-1.892
			c-5.137,2.433-10.543,5.677-9.732,29.467"/>
		<path style="stroke:#000000;stroke-linecap:round;stroke-linejoin:round;stroke-miterlimit:10;" d="M244.21,52.782
			c0.541,0.811-0.27,4.326-0.27,4.326s-9.732,1.622-12.436,2.163c-2.703,0.541-1.352-2.433-0.27-2.703
			C232.315,56.297,244.21,52.782,244.21,52.782z"/>
		<path style="stroke:#000000;stroke-linecap:round;stroke-linejoin:round;stroke-miterlimit:10;" d="M252.701,55.735
			c-0.386,0.895,1.045,4.206,1.045,4.206s9.865-0.157,12.622-0.112c2.757,0.045,0.891-2.637-0.221-2.708
			C265.035,57.049,252.701,55.735,252.701,55.735z"/>
		<path style="fill:#FFFFFF;stroke:#000000;stroke-linecap:round;stroke-linejoin:round;stroke-miterlimit:10;" d="M215.824,64.136
			c0,0,2.974-5.136,2.974,4.055"/>
		<path style="fill:#FFFFFF;stroke:#000000;stroke-linecap:round;stroke-linejoin:round;stroke-miterlimit:10;" d="M282.329,63.596
			c0,0-3.244-4.325-3.515,4.596"/>
		<path style="fill:none;stroke:#000000;stroke-linecap:round;stroke-linejoin:round;stroke-miterlimit:10;" d="M240.425,68.192
			c0,0-3.244,2.163-6.758,1.081"/>
		<path style="fill:none;stroke:#000000;stroke-linecap:round;stroke-linejoin:round;stroke-miterlimit:10;" d="M255.294,68.462
			c0,0,2.704,1.892,6.488,0.27"/>
		<path style="fill:none;stroke:#000000;stroke-linecap:round;stroke-linejoin:round;stroke-miterlimit:10;" d="M227.178,119.287
			c0,0,12.165,6.488,22.979,6.488s21.357-6.488,21.357-6.488"/>
		<path style="fill:none;stroke:#000000;stroke-linecap:round;stroke-linejoin:round;stroke-miterlimit:10;" d="M223.664,121.179
			c0,0,12.976,9.462,27.034,8.921c14.058-0.541,25.412-8.651,25.412-8.651"/>
		<path style="fill:none;stroke:#000000;stroke-linecap:round;stroke-linejoin:round;stroke-miterlimit:10;" d="M210.958,130.641
			c0,0,6.218,7.029,5.137,16.491"/>
		<path style="fill:none;stroke:#000000;stroke-linecap:round;stroke-linejoin:round;stroke-miterlimit:10;" d="M292.061,132.533
			c0,0-9.192,5.407-8.651,14.598"/>
	</g>
	<g>
		<path style="fill:#FFFFFF;stroke:#000000;stroke-linecap:round;stroke-linejoin:round;stroke-miterlimit:10;" d="M220.893,262.508
			c0,0,8.223-5.851,16.921-5.851l23.088-0.633c0,0,8.381-0.158,13.441,4.744c0,0,16.512-29.956-28.157-29.956
			C201.517,230.813,220.893,262.508,220.893,262.508z"/>
		<path style="fill:#FFFFFF;stroke:#000000;stroke-linecap:round;stroke-linejoin:round;stroke-miterlimit:10;" d="M237.798,253.182
			c0,0,0.661,10.924-0.127,13.548c-0.787,2.624-32.41,10.628-33.46,29.654c31.36,13.515,91.719,2.493,91.719,2.493
			s0.426-10.5-7.873-18.108c-9.447-8.66-23.881-8.923-25.98-13.121c-2.099-4.199-1.352-15.04-1.352-15.04"/>
		<path style="fill:#FFFFFF;stroke:#000000;stroke-linecap:round;stroke-linejoin:round;stroke-miterlimit:10;" d="M274.017,201.386
			c2.649,9.783,2.76,18.72-0.11,28.44c-2.743,9.291-8.884,20.491-16.335,24.36c-8.597,4.464-22.64,1.29-31.668-13.756
			c-6.096-10.16-6.673-21.159-4.298-32.767c0,0,8.258-20.865,27.161-21.421C266.613,185.716,274.017,201.386,274.017,201.386z"/>
		<path style="fill:#FFFFFF;stroke:#000000;stroke-linecap:round;stroke-linejoin:round;stroke-miterlimit:10;" d="M237.506,218.336
			c0.122,0.777,0.622,1.477,1.278,1.691c0.291,0.095,0.631,0.085,0.865-0.137c0.178-0.168,0.267-0.429,0.345-0.68
			c0.166-0.533,0.317-1.104,0.219-1.66C239.831,215.385,237.127,215.937,237.506,218.336z"/>
		<path style="fill:#FFFFFF;stroke:#000000;stroke-linecap:round;stroke-linejoin:round;stroke-miterlimit:10;" d="M256.022,218.336
			c0.122,0.777,0.622,1.477,1.278,1.691c0.291,0.095,0.631,0.085,0.865-0.137c0.178-0.168,0.267-0.429,0.345-0.68
			c0.166-0.533,0.317-1.104,0.22-1.66C258.348,215.385,255.643,215.937,256.022,218.336z"/>
		<path style="fill:#FFFFFF;stroke:#000000;stroke-linecap:round;stroke-linejoin:round;stroke-miterlimit:10;" d="M250.392,197.585
			c0,0-10.871,10.33-25.097,12.636c-1.153,12.303,5.767,53.826-13.072,59.208c-18.839,5.383-19.608-23.452-19.608-23.452
			s9.227,5.767,17.686,1.922c8.458-3.845-12.264-36.444,1.384-58.878c13.795-22.677,39.118-9.26,39.118-9.26
			s17.575-12.283,32.126,6.425c12.971,16.677-2.105,53.917-0.567,61.606c1.538,7.689,16.649,1.284,15.496-7.559
			c9.612,8.843-0.167,30.568-15.874,26.835c-18.491-4.395-8.63-59.153-8.63-59.153S258.082,211.426,250.392,197.585z"/>
		<path style="fill:none;stroke:#000000;stroke-linecap:round;stroke-linejoin:round;stroke-miterlimit:10;" d="M248.975,236.99
			c0,0-1.576-1.719-4.155-0.143c-2.579,1.576-5.015,0.86-5.015,0.86s11.464,2.579,17.482-0.43
			C254.276,237.277,251.554,233.551,248.975,236.99z"/>
		<path style="fill:none;stroke:#000000;stroke-linecap:round;stroke-linejoin:round;stroke-miterlimit:10;" d="M243.243,238.71
			c0,0,0.43,4.012,6.018,3.439c5.588-0.573,5.588-3.869,5.588-3.869"/>
		<path style="fill:#FFFFFF;stroke:#000000;stroke-linecap:round;stroke-linejoin:round;stroke-miterlimit:10;" d="M241.008,211.5
			c0,0-4.75-1-7.25,2"/>
		<path style="fill:#FFFFFF;stroke:#000000;stroke-linecap:round;stroke-linejoin:round;stroke-miterlimit:10;" d="M255.508,211.5
			c0,0,4.75-1,7.25,2"/>
		<path style="fill:#FFFFFF;stroke:#000000;stroke-linecap:round;stroke-linejoin:round;stroke-miterlimit:10;" d="M231.566,229.3
			c-0.074,0.519,0.054,1.049,0.255,1.533c0.518,1.247,1.621,2.311,2.959,2.491c1.034,0.14,2.15-0.303,2.728-1.172
			c0.348-0.523,0.491-1.162,0.496-1.79c0.011-1.422-0.747-2.879-2.027-3.498C234.141,225.978,231.85,227.295,231.566,229.3z"/>
		<path style="fill:#FFFFFF;stroke:#000000;stroke-linecap:round;stroke-linejoin:round;stroke-miterlimit:10;" d="M259.292,230.667
			c0.097,1.505,1.365,2.922,2.873,2.952c0.304,0.006,0.612-0.041,0.89-0.166c0.349-0.158,0.633-0.43,0.894-0.71
			c0.747-0.802,1.385-1.745,1.619-2.816c0.234-1.071,0.005-2.283-0.774-3.053C262.336,224.448,259.133,228.206,259.292,230.667z"/>
		<path style="fill:none;stroke:#000000;stroke-linecap:round;stroke-linejoin:round;stroke-miterlimit:10;" d="M218.488,277.272
			c0,0,15.496,9.449,33.827,9.26s28.913-10.583,28.913-10.583"/>
		<path style="fill:none;stroke:#000000;stroke-linecap:round;stroke-linejoin:round;stroke-miterlimit:10;" d="M213.953,280.296
			c0,0,9.827,12.85,36.85,11.716c27.023-1.134,34.582-13.417,34.582-13.417"/>
		<path style="fill:none;stroke:#000000;stroke-linecap:round;stroke-linejoin:round;stroke-miterlimit:10;" d="M254.205,277.366
			c0,1.827-1.481,3.307-3.307,3.307c-1.826,0-3.307-1.481-3.307-3.307c0-1.826,1.481-3.307,3.307-3.307
			C252.724,274.06,254.205,275.54,254.205,277.366z"/>
		
			<line style="fill:none;stroke:#000000;stroke-linecap:round;stroke-linejoin:round;stroke-miterlimit:10;" x1="237.671" y1="266.73" x2="248.158" y2="275.193"/>
		
			<line style="fill:none;stroke:#000000;stroke-linecap:round;stroke-linejoin:round;stroke-miterlimit:10;" x1="253.827" y1="275.193" x2="261.764" y2="267.067"/>
		<path style="fill:none;stroke:#000000;stroke-linecap:round;stroke-linejoin:round;stroke-miterlimit:10;" d="M220.567,213.209
			l0.189,12.85c0,0-6.236-3.213-6.047-8.882C214.898,211.509,220.567,213.209,220.567,213.209z"/>
		<path style="fill:none;stroke:#000000;stroke-linecap:round;stroke-linejoin:round;stroke-miterlimit:10;" d="M274.988,213.209
			l-0.189,12.85c0,0,6.236-3.213,6.047-8.882C280.657,211.509,274.988,213.209,274.988,213.209z"/>
		<path style="fill:#FFFFFF;stroke:#000000;stroke-linecap:round;stroke-linejoin:round;stroke-miterlimit:10;" d="M245.37,223.81
			c0,0-1.942,5.571-0.598,6.247c1.345,0.675,2.092,2.195,4.482,2.026c2.391-0.169,2.837-1.362,4.183-1.688
			c2.092-0.507-0.896-6.753-0.896-6.753"/>
	</g>
	<g>
		<path style="fill:#FFFFFF;stroke:#000000;stroke-linecap:round;stroke-linejoin:round;stroke-miterlimit:10;" d="M86.339,252.206
			c0,0,1.449,6.278-0.483,10.383c-1.167,2.479-32.043,14.656-33.093,33.682c31.36,13.515,91.719,2.493,91.719,2.493
			s0.426-10.5-7.873-18.108c-9.447-8.66-25.157-15.17-25.882-17.102c-1.648-4.396-1.449-12.073-1.449-12.073"/>
		<path style="stroke:#000000;stroke-linecap:round;stroke-linejoin:round;stroke-miterlimit:10;" d="M71.515,196.569
			c-1.182,0.154-7.606,0.661-6.614,5.622c-6.945,0.992-11.575,4.961-8.598,9.591c-3.307,7.276,4.63,15.543,4.63,15.543
			s-3.638,6.614,2.646,8.929c6.283,2.315,14.551-3.307,14.551-3.307l39.354-0.992c0,0,9.921,8.598,14.882,4.299
			c4.961-4.299-1.984-12.236-1.984-12.236s6.945-3.968,6.945-11.906c0-7.937-8.268-7.937-8.268-7.937s3.307-2.976,0.331-6.945
			c-2.976-3.969-17.858-0.331-17.858-0.331S79.121,195.577,71.515,196.569z"/>
		<path style="fill:#FFFFFF;stroke:#000000;stroke-linecap:round;stroke-linejoin:round;stroke-miterlimit:10;" d="M122.569,201.272
			c2.649,9.783,2.417,21.045,0.408,30.979c-4.113,20.334-19.595,21.336-22.874,18.747c-4.346,5.071-21.728,1.379-27.019-8.763
			c-4.372-8.381-5.301-23.078-2.926-34.686c0,0,8.249-21.998,27.152-22.554C115.155,184.47,122.569,201.272,122.569,201.272z"/>
		<path style="fill:#FFFFFF;stroke:#000000;stroke-linecap:round;stroke-linejoin:round;stroke-miterlimit:10;" d="M86.057,218.223
			c0.123,0.777,0.622,1.477,1.278,1.691c0.291,0.095,0.631,0.086,0.865-0.136c0.178-0.169,0.267-0.429,0.345-0.68
			c0.166-0.533,0.317-1.104,0.22-1.66C88.383,215.272,85.679,215.823,86.057,218.223z"/>
		<path style="fill:#FFFFFF;stroke:#000000;stroke-linecap:round;stroke-linejoin:round;stroke-miterlimit:10;" d="M104.574,218.223
			c0.122,0.777,0.622,1.477,1.278,1.691c0.291,0.095,0.631,0.086,0.865-0.136c0.178-0.169,0.267-0.429,0.345-0.68
			c0.166-0.533,0.317-1.104,0.22-1.66C106.899,215.272,104.195,215.823,104.574,218.223z"/>
		<path style="fill:#FFFFFF;stroke:#000000;stroke-linecap:round;stroke-linejoin:round;stroke-miterlimit:10;" d="M90.079,209.23
			c-3.679-0.839-7.805,1.49-8.987,5.073"/>
		<path style="fill:#FFFFFF;stroke:#000000;stroke-linecap:round;stroke-linejoin:round;stroke-miterlimit:10;" d="M103.011,206.651
			c3.679-0.84,7.805,1.49,8.987,5.073"/>
		<path style="stroke:#000000;stroke-linecap:round;stroke-linejoin:round;stroke-miterlimit:10;" d="M76.921,196.426l1.69,2.415
			c0,0-6.278,13.281-6.037,21.008c-3.622,1.69-7.486,0.966-7.486,0.966S64.848,201.497,76.921,196.426z"/>
		<path style="stroke:#000000;stroke-linecap:round;stroke-linejoin:round;stroke-miterlimit:10;" d="M117.729,195.702l-1.69,2.415
			c0,0,6.278,13.281,6.037,21.008c3.622,1.69,7.486,0.966,7.486,0.966S129.803,200.773,117.729,195.702z"/>
		<path style="fill:#FFFFFF;stroke:#000000;stroke-linecap:round;stroke-linejoin:round;stroke-miterlimit:10;" d="M67.987,215.502
			c0,0-1.932-5.071-5.071-1.207s-1.207,11.349,5.312,10.625C67.745,220.332,67.987,215.502,67.987,215.502z"/>
		<path style="fill:#FFFFFF;stroke:#000000;stroke-linecap:round;stroke-linejoin:round;stroke-miterlimit:10;" d="M125.916,215.502
			c0,0,1.932-5.071,5.071-1.207s1.207,11.349-5.312,10.625C126.158,220.332,125.916,215.502,125.916,215.502z"/>
		<path style="fill:none;stroke:#000000;stroke-linecap:round;stroke-linejoin:round;stroke-miterlimit:10;" d="M96.722,236.51
			c0,0,2.898,0.483,4.346-0.725"/>
		<path style="fill:none;stroke:#000000;stroke-linecap:round;stroke-linejoin:round;stroke-miterlimit:10;" d="M63.399,216.951
			c0,0,2.898-4.105,3.139,1.932"/>
		<path style="fill:none;stroke:#000000;stroke-linecap:round;stroke-linejoin:round;stroke-miterlimit:10;" d="M129.803,216.468
			c0,0-2.173-2.173-2.173,2.415"/>
		<path style="fill:#FFFFFF;stroke:#000000;stroke-linecap:round;stroke-linejoin:round;stroke-miterlimit:10;" d="M94.066,210.431
			v21.008c0,0,5.554,2.173,7.969-0.966"/>
		<polygon style="fill:#FFFFFF;stroke:#000000;stroke-linecap:round;stroke-linejoin:round;stroke-miterlimit:10;" points="
			82.958,260.657 69.919,270.074 83.441,270.799 81.992,278.767 91.651,281.906 97.446,274.662 		"/>
		<polygon style="fill:#FFFFFF;stroke:#000000;stroke-linecap:round;stroke-linejoin:round;stroke-miterlimit:10;" points="
			112.9,260.898 126.664,270.316 115.074,271.765 111.935,279.492 103.725,280.941 97.446,274.662 		"/>
		<path style="stroke:#000000;stroke-linecap:round;stroke-linejoin:round;stroke-miterlimit:10;" d="M101.793,279.25
			c-3.381,4.346-8.21,0.483-8.21,0.483l3.863-5.071L101.793,279.25z"/>
		<polyline style="stroke:#000000;stroke-linecap:round;stroke-linejoin:round;stroke-miterlimit:10;" points="95.756,281.423 
			92.617,309.676 96.722,317.161 103,308.951 99.861,281.182 		"/>
		<polyline style="fill:none;stroke:#000000;stroke-linecap:round;stroke-linejoin:round;stroke-miterlimit:10;" points="
			83.683,302.431 83.441,293.98 65.572,291.324 65.331,300.258 		"/>
		
			<line style="fill:none;stroke:#000000;stroke-linecap:round;stroke-linejoin:round;stroke-miterlimit:10;" x1="66.055" y1="294.704" x2="83.441" y2="296.878"/>
		<path style="fill:none;stroke:#000000;stroke-linecap:round;stroke-linejoin:round;stroke-miterlimit:10;" d="M67.504,291.324
			c0,0,0-7.969,1.207-8.21c1.207-0.241,1.532,4.394,1.279,8.64"/>
		
			<line style="fill:none;stroke:#000000;stroke-linecap:round;stroke-linejoin:round;stroke-miterlimit:10;" x1="67.987" y1="288.426" x2="69.919" y2="288.426"/>
	</g>
	<g>
		<path style="fill:#FFFFFF;stroke:#000000;stroke-linecap:round;stroke-linejoin:round;stroke-miterlimit:10;" d="M388.988,251.002
			c0,0,0.919,12.99,0.131,15.615c-0.787,2.624-32.41,10.628-33.46,29.654c31.36,13.515,91.719,2.493,91.719,2.493
			s0.426-10.5-7.873-18.108c-9.447-8.66-23.881-8.923-25.98-13.121c-2.099-4.199-1.181-18.764-1.181-18.764"/>
		<path style="fill:#FFFFFF;stroke:#000000;stroke-linecap:round;stroke-linejoin:round;stroke-miterlimit:10;" d="M372.422,212.891
			c0,0-5.163-5.347-7.375-0.184c-2.213,5.163,0.553,21.02,7.191,15.304"/>
		<path style="fill:#FFFFFF;stroke:#000000;stroke-linecap:round;stroke-linejoin:round;stroke-miterlimit:10;" d="M428.093,212.891
			c0,0,5.163-5.347,7.375-0.184c2.213,5.163-0.553,21.02-7.191,15.304"/>
		<path style="fill:#FFFFFF;stroke:#000000;stroke-linecap:round;stroke-linejoin:round;stroke-miterlimit:10;" d="M425.466,201.272
			c2.649,9.783,3.277,21.259,0.407,30.979c-2.743,9.291-7.534,14.775-18.279,18.428c-9.172,3.118-28.366,0.86-31.614-8.445
			c-3.905-11.187-5.301-23.078-2.926-34.686c0,0,10.624-18.809,29.527-19.365C420.427,187.659,425.466,201.272,425.466,201.272z"/>
		<path style="fill:#FFFFFF;stroke:#000000;stroke-linecap:round;stroke-linejoin:round;stroke-miterlimit:10;" d="M388.954,218.223
			c0.122,0.777,0.622,1.477,1.278,1.691c0.291,0.095,0.631,0.086,0.865-0.136c0.178-0.169,0.267-0.429,0.345-0.68
			c0.166-0.533,0.317-1.104,0.22-1.66C391.28,215.272,388.576,215.823,388.954,218.223z"/>
		<path style="fill:#FFFFFF;stroke:#000000;stroke-linecap:round;stroke-linejoin:round;stroke-miterlimit:10;" d="M407.47,218.223
			c0.122,0.777,0.622,1.477,1.278,1.691c0.291,0.095,0.63,0.086,0.865-0.136c0.178-0.169,0.267-0.429,0.345-0.68
			c0.166-0.533,0.317-1.104,0.22-1.66C409.796,215.272,407.092,215.823,407.47,218.223z"/>
		<path style="stroke:#000000;stroke-linecap:round;stroke-linejoin:round;stroke-miterlimit:10;" d="M402.082,233.222
			c0,0-3.115-8.098-9.967-3.426c-6.852,4.672-9.967,16.196-7.475,26.785c4.361-12.147,11.213-20.556,11.213-20.556l6.541-0.311
			l7.163,0.311l5.606,18.999c0,0,5.453-11.606,1.801-20.007C413.276,226.535,406.131,226.992,402.082,233.222z"/>
		<path style="fill:#FFFFFF;stroke:#000000;stroke-linecap:round;stroke-linejoin:round;stroke-miterlimit:10;" d="M394.654,225.798
			c0,0-2.95,4.425,2.581,4.425c0.369,2.766,3.134,4.056,6.269,3.688c3.134-0.369,3.503-4.61,3.503-4.61s2.028,1.106,3.134-0.922
			s-2.95-3.688-2.95-3.688"/>
		<path style="stroke:#000000;stroke-linecap:round;stroke-linejoin:round;stroke-miterlimit:10;" d="M380.641,213.629
			c0,0,12.722-1.844,15.119-3.688c2.397-1.844,1.475-5.716,0.184-5.9c-1.291-0.184-2.95,2.766-2.95,2.766s-1.291-2.581-2.397-2.397
			c-1.106,0.184-1.844,3.503-1.844,3.503s-1.844-3.319-3.688-2.213c-1.844,1.106-1.106,2.95-1.106,2.95s-3.135-2.397-4.241-0.553
			C378.613,209.941,380.641,213.629,380.641,213.629z"/>
		<path style="stroke:#000000;stroke-linecap:round;stroke-linejoin:round;stroke-miterlimit:10;" d="M420.028,213.117
			c0,0-12.835,0.716-15.55-0.616c-2.715-1.332-2.579-5.31-1.351-5.747c1.228-0.437,3.44,2.126,3.44,2.126s0.753-2.786,1.874-2.825
			c1.121-0.039,2.502,3.068,2.502,3.068s1.149-3.619,3.176-2.9c2.027,0.719,1.669,2.672,1.669,2.672s2.597-2.971,4.047-1.383
			C421.284,209.1,420.028,213.117,420.028,213.117z"/>
		
			<line style="stroke:#000000;stroke-linecap:round;stroke-linejoin:round;stroke-miterlimit:10;" x1="402.029" y1="246.08" x2="402.029" y2="248.477"/>
		<path style="stroke:#000000;stroke-linecap:round;stroke-linejoin:round;stroke-miterlimit:10;" d="M372.528,235.57l7.56-3.872
			l-5.9-11.801l1.659-14.935l12.354-11.247l-2.213,4.978l7.744-6.453l3.134,3.503l4.425-5.163l4.057,3.503l2.028-3.688l6.269,6.085
			l1.106-4.057l9.404,11.063l2.397,15.304l-5.9,11.8l8.297,2.766c0,0,5.347-19.36,2.766-33.558
			c-2.698-14.837-15.488-20.466-15.488-20.466l-0.369,3.319l-18.623-10.879c0.369,4.978,0.553,7.007,0.553,7.007
			s-12.722-7.191-17.148-7.007c0.737,5.163,1.291,9.772,1.291,9.772l-4.794-0.553c0,0-6.654,8.127-7.56,17.701
			C366.996,225.982,372.528,235.57,372.528,235.57z"/>
		<polyline style="fill:none;stroke:#000000;stroke-linecap:round;stroke-linejoin:round;stroke-miterlimit:10;" points="
			375.24,274.361 404.018,298.607 428.717,274.134 		"/>
		<path style="fill:none;stroke:#000000;stroke-linecap:round;stroke-linejoin:round;stroke-miterlimit:10;" d="M396.96,292.405
			c-0.645-0.839-1.056-1.855-1.177-2.906c-0.104-0.905,0.044-1.91,0.702-2.54c0.25-0.239,0.558-0.409,0.872-0.554
			c0.419-0.193,0.865-0.347,1.326-0.353c1.023-0.012,1.982,0.804,2.172,1.809c0.189,1.006-0.383,2.094-1.303,2.543
			c-0.402,0.196-0.884,0.276-1.295,0.102c-0.482-0.204-0.782-0.766-0.684-1.28c0.098-0.514,0.584-0.926,1.107-0.939"/>
		<path style="fill:none;stroke:#000000;stroke-linecap:round;stroke-linejoin:round;stroke-miterlimit:10;" d="M402.032,290.988
			c-0.905,0.29-1.492,1.27-1.456,2.219c0.036,0.95,0.619,1.828,1.406,2.36c0.295,0.2,0.629,0.36,0.984,0.382
			c0.324,0.02,0.643-0.075,0.951-0.179c0.63-0.214,1.258-0.478,1.757-0.919c0.499-0.441,0.854-1.086,0.807-1.749
			c-0.058-0.818-0.743-1.513-1.539-1.707c-0.507-0.123-1.074-0.06-1.499,0.244c-0.425,0.304-0.673,0.866-0.538,1.37
			c0.135,0.504,0.692,0.879,1.197,0.748c-0.015-0.044-0.03-0.088-0.045-0.133"/>
		<path style="fill:none;stroke:#000000;stroke-linecap:round;stroke-linejoin:round;stroke-miterlimit:10;" d="M409.856,292.438
			c0.539-0.578,0.927-1.313,1.019-2.098c0.092-0.785-0.13-1.618-0.663-2.202c-0.204-0.223-0.447-0.407-0.702-0.569
			c-0.312-0.199-0.656-0.371-1.026-0.393c-0.485-0.029-0.966,0.214-1.274,0.591c-0.308,0.376-0.451,0.871-0.449,1.357
			c0.002,0.676,0.308,1.38,0.893,1.719c0.585,0.339,1.446,0.195,1.782-0.392"/>
		<path style="fill:none;stroke:#000000;stroke-linecap:round;stroke-linejoin:round;stroke-miterlimit:10;" d="M413.406,289.178
			c-0.963-0.316-1.603-1.404-1.412-2.399c0.191-0.995,1.187-1.769,2.199-1.707"/>
		<path style="fill:none;stroke:#000000;stroke-linecap:round;stroke-linejoin:round;stroke-miterlimit:10;" d="M404.738,285.637
			c0.078,0.446,0.117,0.898,0.116,1.351c-0.001,0.223-0.012,0.451-0.096,0.658c-0.081,0.201-0.227,0.371-0.394,0.509
			c-0.495,0.408-1.241,0.534-1.797,0.213c-0.556-0.32-0.812-1.118-0.464-1.657"/>
		<path style="fill:none;stroke:#000000;stroke-linecap:round;stroke-linejoin:round;stroke-miterlimit:10;" d="M392.206,288.176
			c0.462-0.239,0.935-0.486,1.288-0.868c0.338-0.365,0.546-0.832,0.683-1.31c0.254-0.885,0.279-1.835,0.071-2.732"/>
		<path style="fill:none;stroke:#000000;stroke-linecap:round;stroke-linejoin:round;stroke-miterlimit:10;" d="M390.072,286.705
			c0.378-0.925,1.222-1.645,2.195-1.872"/>
		<path style="fill:none;stroke:#000000;stroke-linecap:round;stroke-linejoin:round;stroke-miterlimit:10;" d="M408.382,283.456
			c0.889,0.387,1.533,1.287,1.61,2.254"/>
		<path style="fill:none;stroke:#000000;stroke-linecap:round;stroke-linejoin:round;stroke-miterlimit:10;" d="M418.406,284.119
			c-0.737-0.831-1.872-1.292-2.979-1.209c0.087,0.085,0.211,0.131,0.332,0.122"/>
		<path style="fill:none;stroke:#000000;stroke-linecap:round;stroke-linejoin:round;stroke-miterlimit:10;" d="M371.133,276.375
			c0,0,6.5,9.25,1.625,24.5"/>
		<path style="fill:none;stroke:#000000;stroke-linecap:round;stroke-linejoin:round;stroke-miterlimit:10;" d="M435.258,277.375
			c0,0-11,6.125-9.125,24.25"/>
	</g>
	<g>
		<path style="fill:#FFFFFF;stroke:#000000;stroke-linecap:round;stroke-linejoin:round;stroke-miterlimit:10;" d="M237.54,402.559
			c0,0,0.919,12.99,0.131,15.615c-0.787,2.624-32.41,10.628-33.46,29.654c31.36,13.515,91.719,2.493,91.719,2.493
			s0.426-10.5-7.873-18.108c-9.447-8.66-23.881-8.923-25.98-13.121c-2.099-4.199-1.181-18.764-1.181-18.764"/>
		<path style="fill:#FFFFFF;stroke:#000000;stroke-linecap:round;stroke-linejoin:round;stroke-miterlimit:10;" d="M222.718,362.528
			c0,0-7.096-6.286-10.341,2.23c-3.244,8.516-0.608,19.262,11.557,15.207"/>
		<path style="fill:#FFFFFF;stroke:#000000;stroke-linecap:round;stroke-linejoin:round;stroke-miterlimit:10;" d="M274.161,362.528
			c0,0,7.096-6.286,10.341,2.23c3.244,8.516,0.608,19.262-11.557,15.207"/>
		<path style="fill:#FFFFFF;stroke:#000000;stroke-linecap:round;stroke-linejoin:round;stroke-miterlimit:10;" d="M274.017,352.829
			c2.649,9.783,3.277,21.259,0.407,30.979c-2.743,9.291-7.534,14.775-18.279,18.428c-9.172,3.118-28.366,0.86-31.614-8.445
			c-3.905-11.187-5.301-23.078-2.926-34.687c0,0,3.827-20.236,27.931-20.236C267.39,338.87,274.017,352.829,274.017,352.829z"/>
		<path style="fill:#FFFFFF;stroke:#000000;stroke-linecap:round;stroke-linejoin:round;stroke-miterlimit:10;" d="M237.506,369.78
			c0.122,0.777,0.622,1.477,1.278,1.691c0.291,0.095,0.631,0.085,0.865-0.137c0.178-0.169,0.267-0.429,0.345-0.68
			c0.166-0.533,0.317-1.104,0.219-1.66C239.831,366.829,237.127,367.38,237.506,369.78z"/>
		<path style="fill:#FFFFFF;stroke:#000000;stroke-linecap:round;stroke-linejoin:round;stroke-miterlimit:10;" d="M256.022,369.78
			c0.122,0.777,0.622,1.477,1.278,1.691c0.291,0.095,0.631,0.085,0.865-0.137c0.178-0.169,0.267-0.429,0.345-0.68
			c0.166-0.533,0.317-1.104,0.22-1.66C258.348,366.829,255.643,367.38,256.022,369.78z"/>
		<path style="fill:#FFFFFF;stroke:#000000;stroke-linecap:round;stroke-linejoin:round;stroke-miterlimit:10;" d="M241.527,360.786
			c-3.679-0.84-7.805,1.49-8.987,5.073"/>
		<path style="fill:#FFFFFF;stroke:#000000;stroke-linecap:round;stroke-linejoin:round;stroke-miterlimit:10;" d="M254.46,358.208
			c3.679-0.839,7.805,1.49,8.987,5.073"/>
		<path style="fill:#FFFFFF;stroke:#000000;stroke-linecap:round;stroke-linejoin:round;stroke-miterlimit:10;" d="M248.024,358.561
			c0,0,4.457,19.201,3.943,20.229s-3.771,1.371-3.771,1.371"/>
		<g>
			<defs>
				<path id="XMLID_1_" d="M238.938,381.19l19.029,1.2c0,0-2.057,11.486-10.8,10.286C238.424,391.476,238.938,381.19,238.938,381.19
					z"/>
			</defs>
			<use xlink:href="#XMLID_1_"  style="overflow:visible;fill:#FFFFFF;"/>
			<clipPath id="XMLID_00000091695740723403874290000015404814430726669463_">
				<use xlink:href="#XMLID_1_"  style="overflow:visible;"/>
			</clipPath>
			
				<path style="clip-path:url(#XMLID_00000091695740723403874290000015404814430726669463_);stroke:#000000;stroke-linecap:round;stroke-linejoin:round;stroke-miterlimit:10;" d="
				M239.968,377.837c0.517-0.163,2.286,6.977,2.286,6.977l-4.451,4.331C237.802,389.145,233.967,379.723,239.968,377.837z"/>
			
				<path style="clip-path:url(#XMLID_00000091695740723403874290000015404814430726669463_);stroke:#000000;stroke-linecap:round;stroke-linejoin:round;stroke-miterlimit:10;" d="
				M257.651,379.522l-3.729,6.255l4.692,4.692C258.614,390.469,261.766,380.379,257.651,379.522z"/>
			
				<use xlink:href="#XMLID_1_"  style="overflow:visible;fill:none;stroke:#000000;stroke-linecap:round;stroke-linejoin:round;stroke-miterlimit:10;"/>
		</g>
		<path style="stroke:#000000;stroke-linecap:round;stroke-linejoin:round;stroke-miterlimit:10;" d="M220.285,370.841
			c0,0,4.866-5.474,5.069-10.341s1.419-9.732,1.419-9.732s17.032-3.852,24.128-9.124c-4.258,7.908-12.774,10.138-12.774,10.138
			s12.977-1.216,17.64-8.11c-3.447,9.327,2.636,11.152,2.636,11.152s-2.23-5.88,2.027-10.746c4.258,4.664,7.705,13.585,7.705,13.585
			s2.433-5.88,0.405-9.327c5.475,11.76,4.258,15.612,7.908,19.059c3.244-6.285,1.014-27.778-2.028-31.427
			c-3.041-3.65-11.963-2.839-11.963-2.839s-7.705-8.313-22.101-6.285C225.962,328.87,212.986,334.547,220.285,370.841z"/>
		<path style="fill:none;stroke:#000000;stroke-linecap:round;stroke-linejoin:round;stroke-miterlimit:10;" d="M215.621,378.14
			c0,0-4.461,2.23-2.433,4.663c2.207,2.648,5.069-2.027,5.069-2.027"/>
		<path style="fill:none;stroke:#000000;stroke-linecap:round;stroke-linejoin:round;stroke-miterlimit:10;" d="M216.635,362.122
			c0,0-1.419-4.461-3.447-2.839c-2.027,1.622,0.203,3.447,0.203,3.447"/>
		<path style="fill:none;stroke:#000000;stroke-linecap:round;stroke-linejoin:round;stroke-miterlimit:10;" d="M214.09,364.836
			c0,0-3.681-2.548-4.53,0c-0.857,2.57,2.123,2.973,2.123,2.973"/>
		<path style="fill:none;stroke:#000000;stroke-linecap:round;stroke-linejoin:round;stroke-miterlimit:10;" d="M279.758,377.75
			c0,0,4.915,3.834,1.25,6c-2.75,1.625-3.75-2.75-3.75-2.75"/>
		<path style="fill:none;stroke:#000000;stroke-linecap:round;stroke-linejoin:round;stroke-miterlimit:10;" d="M214.925,368.167
			c0,0,2.333-5.167,3.167,0.833c0.833,6,0.833,6,0.833,6"/>
		<path style="fill:none;stroke:#000000;stroke-linecap:round;stroke-linejoin:round;stroke-miterlimit:10;" d="M282.758,366.5
			c0,0-2.333-2.5-3.5,0.333c-1.167,2.833-1,7.333-1,7.333"/>
		
			<line style="fill:none;stroke:#000000;stroke-linecap:round;stroke-linejoin:round;stroke-miterlimit:10;" x1="232.258" y1="371" x2="229.092" y2="370.333"/>
		
			<line style="fill:none;stroke:#000000;stroke-linecap:round;stroke-linejoin:round;stroke-miterlimit:10;" x1="232.092" y1="372.167" x2="228.925" y2="372.833"/>
		
			<line style="fill:none;stroke:#000000;stroke-linecap:round;stroke-linejoin:round;stroke-miterlimit:10;" x1="264.758" y1="369.333" x2="268.592" y2="368.667"/>
		
			<line style="fill:none;stroke:#000000;stroke-linecap:round;stroke-linejoin:round;stroke-miterlimit:10;" x1="265.258" y1="370.667" x2="268.925" y2="371.667"/>
		<path style="fill:none;stroke:#000000;stroke-linecap:round;stroke-linejoin:round;stroke-miterlimit:10;" d="M206.258,441.333
			c0,0,21.167,7.5,43.833,6.833c22.667-0.667,44.5-4.667,44.5-4.667"/>
		<path style="fill:none;stroke:#000000;stroke-linecap:round;stroke-linejoin:round;stroke-miterlimit:10;" d="M211.258,433.833
			c0,0,20.833,6.833,40.5,6.5c19.667-0.333,39.667-4.5,39.667-4.5"/>
		<path style="fill:none;stroke:#000000;stroke-linecap:round;stroke-linejoin:round;stroke-miterlimit:10;" d="M220.425,427.333
			c0,0,15,6.5,32,5.667s30.167-4.5,30.167-4.5"/>
		<path style="fill:none;stroke:#000000;stroke-linecap:round;stroke-linejoin:round;stroke-miterlimit:10;" d="M229.758,422.833
			c0,0,10.5,3.667,21.167,3.5c10.667-0.167,19-3,19-3"/>
		<path style="fill:none;stroke:#000000;stroke-linecap:round;stroke-linejoin:round;stroke-miterlimit:10;" d="M237.671,418.173
			c0,0,11.891,3.177,23.906,0.919"/>
	</g>
	<g>
		<path style="stroke:#000000;stroke-linecap:round;stroke-linejoin:round;stroke-miterlimit:10;" d="M94.94,325.691
			c-13.142,0.555-29.551,6.567-32.47,32.47c-2.919,25.903,7.297,77.709,7.297,77.709l56.913-0.73c0,0,12.769-37.578,9.85-65.669
			C133.612,341.379,120.843,324.596,94.94,325.691z"/>
		<g>
			<defs>
				<path id="XMLID_2_" d="M86.091,402.559c0,0,0.919,12.99,0.131,15.615s-32.41,10.628-33.46,29.654
					c31.36,13.515,91.719,2.493,91.719,2.493s0.426-10.5-7.873-18.108c-9.447-8.66-23.881-8.923-25.98-13.121
					c-2.099-4.199-1.181-18.764-1.181-18.764"/>
			</defs>
			<use xlink:href="#XMLID_2_"  style="overflow:visible;fill:#FFFFFF;"/>
			<clipPath id="XMLID_00000141448073883431166090000017825950206797619610_">
				<use xlink:href="#XMLID_2_"  style="overflow:visible;"/>
			</clipPath>
			
				<circle style="clip-path:url(#XMLID_00000141448073883431166090000017825950206797619610_);fill:#FFFFFF;stroke:#000000;stroke-linecap:round;stroke-linejoin:round;stroke-miterlimit:10;" cx="60.258" cy="435.75" r="5.75"/>
			
				<circle style="clip-path:url(#XMLID_00000141448073883431166090000017825950206797619610_);fill:#FFFFFF;stroke:#000000;stroke-linecap:round;stroke-linejoin:round;stroke-miterlimit:10;" cx="76.883" cy="452.375" r="6.625"/>
			
				<circle style="clip-path:url(#XMLID_00000141448073883431166090000017825950206797619610_);fill:#FFFFFF;stroke:#000000;stroke-linecap:round;stroke-linejoin:round;stroke-miterlimit:10;" cx="91.258" cy="444" r="3.25"/>
			
				<circle style="clip-path:url(#XMLID_00000141448073883431166090000017825950206797619610_);fill:#FFFFFF;stroke:#000000;stroke-linecap:round;stroke-linejoin:round;stroke-miterlimit:10;" cx="79.633" cy="438.125" r="3.625"/>
			
				<circle style="clip-path:url(#XMLID_00000141448073883431166090000017825950206797619610_);fill:#FFFFFF;stroke:#000000;stroke-linecap:round;stroke-linejoin:round;stroke-miterlimit:10;" cx="104.883" cy="456.875" r="5.875"/>
			
				<circle style="clip-path:url(#XMLID_00000141448073883431166090000017825950206797619610_);fill:#FFFFFF;stroke:#000000;stroke-linecap:round;stroke-linejoin:round;stroke-miterlimit:10;" cx="115.883" cy="436.125" r="2.875"/>
			
				<circle style="clip-path:url(#XMLID_00000141448073883431166090000017825950206797619610_);fill:#FFFFFF;stroke:#000000;stroke-linecap:round;stroke-linejoin:round;stroke-miterlimit:10;" cx="134.008" cy="451.25" r="7"/>
			
				<circle style="clip-path:url(#XMLID_00000141448073883431166090000017825950206797619610_);fill:#FFFFFF;stroke:#000000;stroke-linecap:round;stroke-linejoin:round;stroke-miterlimit:10;" cx="139.383" cy="433.375" r="5.875"/>
			
				<circle style="clip-path:url(#XMLID_00000141448073883431166090000017825950206797619610_);fill:#FFFFFF;stroke:#000000;stroke-linecap:round;stroke-linejoin:round;stroke-miterlimit:10;" cx="126.883" cy="437.625" r="3.875"/>
			
				<circle style="clip-path:url(#XMLID_00000141448073883431166090000017825950206797619610_);fill:#FFFFFF;stroke:#000000;stroke-linecap:round;stroke-linejoin:round;stroke-miterlimit:10;" cx="117.133" cy="447.375" r="4.875"/>
			
				<circle style="clip-path:url(#XMLID_00000141448073883431166090000017825950206797619610_);fill:#FFFFFF;stroke:#000000;stroke-linecap:round;stroke-linejoin:round;stroke-miterlimit:10;" cx="102.508" cy="437.5" r="5.875"/>
			
				<use xlink:href="#XMLID_2_"  style="overflow:visible;fill:none;stroke:#000000;stroke-linecap:round;stroke-linejoin:round;stroke-miterlimit:10;"/>
		</g>
		<path style="fill:#FFFFFF;stroke:#000000;stroke-linecap:round;stroke-linejoin:round;stroke-miterlimit:10;" d="M122.569,352.829
			c2.649,9.783,3.277,21.259,0.407,30.979c-2.743,9.291-7.534,14.775-18.279,18.428c-9.172,3.118-28.366,0.86-31.614-8.445
			c-3.905-11.187-5.301-23.078-2.926-34.687c0,0,11.201-7.426,30.104-7.982C118.108,350.598,122.569,352.829,122.569,352.829z"/>
		<path style="fill:#FFFFFF;stroke:#000000;stroke-linecap:round;stroke-linejoin:round;stroke-miterlimit:10;" d="M86.057,369.78
			c0.123,0.777,0.622,1.477,1.278,1.691c0.291,0.095,0.631,0.085,0.865-0.137c0.178-0.169,0.267-0.429,0.345-0.68
			c0.166-0.533,0.317-1.104,0.22-1.66C88.383,366.829,85.679,367.38,86.057,369.78z"/>
		<path style="fill:#FFFFFF;stroke:#000000;stroke-linecap:round;stroke-linejoin:round;stroke-miterlimit:10;" d="M104.574,369.78
			c0.122,0.777,0.622,1.477,1.278,1.691c0.291,0.095,0.631,0.085,0.865-0.137c0.178-0.169,0.267-0.429,0.345-0.68
			c0.166-0.533,0.317-1.104,0.22-1.66C106.899,366.829,104.195,367.38,104.574,369.78z"/>
		<path style="fill:#FFFFFF;stroke:#000000;stroke-linecap:round;stroke-linejoin:round;stroke-miterlimit:10;" d="M71.591,350.864
			c0,0,23.714-15.323,48.523-5.837C113.911,328.974,79.252,330.069,71.591,350.864z"/>
		<path style="fill:#FFFFFF;stroke:#000000;stroke-linecap:round;stroke-linejoin:round;stroke-miterlimit:10;" d="M96.421,378.287
			l4.862-0.648c0,0-4.538-3.566-3.566-8.104"/>
		
			<line style="fill:#FFFFFF;stroke:#000000;stroke-linecap:round;stroke-linejoin:round;stroke-miterlimit:10;" x1="91.559" y1="385.094" x2="104.849" y2="384.446"/>
		<path style="stroke:#000000;stroke-linecap:round;stroke-linejoin:round;stroke-miterlimit:10;" d="M93.053,385.467
			c0,0,0.451,2.868,4.989,2.868s5.511-3.566,5.511-3.566"/>
		<path style="stroke:#000000;stroke-linecap:round;stroke-linejoin:round;stroke-miterlimit:10;" d="M93.589,384.855
			c0,0,1.608-2.757,4.518-1.302c1.991-1.455,4.9,0.842,4.9,0.842"/>
		<g>
			<path style="fill:#FFFFFF;stroke:#000000;stroke-linecap:round;stroke-linejoin:round;stroke-miterlimit:10;" d="M66.592,366.833
				c0,0,2.167,12.833,1.167,14.833s-10,0.333-11.5-9.667C55.244,365.24,61.925,362.167,66.592,366.833z"/>
			<path style="fill:#FFFFFF;stroke:#000000;stroke-linecap:round;stroke-linejoin:round;stroke-miterlimit:10;" d="M64.425,375.667
				c0,0,1.667-7.667-2.5-7.667"/>
			<path style="fill:#FFFFFF;stroke:#000000;stroke-linecap:round;stroke-linejoin:round;stroke-miterlimit:10;" d="M57.925,377.333
				c0,0-10.27,5.727-6.342,14.479c3.928,8.752,20.859,6.095,14.278-12.994c-1.188,0.692-1.188,0.692-1.188,0.692
				s3.572,11.112-3.946,14.508s-10.395-10.136-1.969-15.184"/>
			
				<line style="fill:#FFFFFF;stroke:#000000;stroke-linecap:round;stroke-linejoin:round;stroke-miterlimit:10;" x1="64.258" y1="371" x2="60.508" y2="373"/>
		</g>
		<g>
			<path style="fill:#FFFFFF;stroke:#000000;stroke-linecap:round;stroke-linejoin:round;stroke-miterlimit:10;" d="
				M128.368,366.833c0,0-2.167,12.833-1.167,14.833s10,0.333,11.5-9.667C139.716,365.24,133.035,362.167,128.368,366.833z"/>
			<path style="fill:#FFFFFF;stroke:#000000;stroke-linecap:round;stroke-linejoin:round;stroke-miterlimit:10;" d="
				M130.535,375.667c0,0-1.667-7.667,2.5-7.667"/>
			<path style="fill:#FFFFFF;stroke:#000000;stroke-linecap:round;stroke-linejoin:round;stroke-miterlimit:10;" d="
				M137.035,377.333c0,0,10.27,5.727,6.342,14.479c-3.928,8.752-20.858,6.095-14.277-12.994c1.188,0.692,1.188,0.692,1.188,0.692
				s-3.572,11.112,3.946,14.508s10.395-10.136,1.969-15.184"/>
			
				<line style="fill:#FFFFFF;stroke:#000000;stroke-linecap:round;stroke-linejoin:round;stroke-miterlimit:10;" x1="130.702" y1="371" x2="134.452" y2="373"/>
		</g>
		<path style="fill:none;stroke:#000000;stroke-linecap:round;stroke-linejoin:round;stroke-miterlimit:10;" d="M74.258,424.75
			c0,0,26.25,6.5,46-0.5"/>
		<path style="fill:#FFFFFF;stroke:#000000;stroke-linecap:round;stroke-linejoin:round;stroke-miterlimit:10;" d="M81.758,364.667
			c0,0,5.333-4.333,11.333-1.333"/>
		<path style="fill:#FFFFFF;stroke:#000000;stroke-linecap:round;stroke-linejoin:round;stroke-miterlimit:10;" d="M102.302,360.645
			c0,0,6.197-2.97,11.332,1.347"/>
	</g>
	<g>
		<path style="fill:#FFFFFF;stroke:#000000;stroke-linecap:round;stroke-linejoin:round;stroke-miterlimit:10;" d="M388.988,402.559
			c0,0,0.919,12.99,0.131,15.615c-0.787,2.624-32.41,10.628-33.46,29.654c31.36,13.515,91.719,2.493,91.719,2.493
			s0.426-10.5-7.873-18.108c-9.447-8.66-23.881-8.923-25.98-13.121c-2.099-4.199-1.181-18.764-1.181-18.764"/>
		<path style="fill:#FFFFFF;stroke:#000000;stroke-linecap:round;stroke-linejoin:round;stroke-miterlimit:10;" d="M424.758,365.667
			c0,0,3.667-5,6.667-1.333c3,3.667,0.333,19.333-8.333,17.333"/>
		<path style="fill:#FFFFFF;stroke:#000000;stroke-linecap:round;stroke-linejoin:round;stroke-miterlimit:10;" d="M424.758,356.333
			c2.649,9.783,0.968,21.156-3.333,30.333c-15,32-36.667,16-43.333,4c-5.754-10.358-7.412-19.953-5.037-31.561
			c0,0,8.134-16.216,27.037-16.772C417.937,341.809,424.758,356.333,424.758,356.333z"/>
		<path style="fill:#FFFFFF;stroke:#000000;stroke-linecap:round;stroke-linejoin:round;stroke-miterlimit:10;" d="M388.954,369.78
			c0.122,0.777,0.622,1.477,1.278,1.691c0.291,0.095,0.631,0.085,0.865-0.137c0.178-0.169,0.267-0.429,0.345-0.68
			c0.166-0.533,0.317-1.104,0.22-1.66C391.28,366.829,388.576,367.38,388.954,369.78z"/>
		<path style="fill:#FFFFFF;stroke:#000000;stroke-linecap:round;stroke-linejoin:round;stroke-miterlimit:10;" d="M407.47,369.78
			c0.122,0.777,0.622,1.477,1.278,1.691c0.291,0.095,0.63,0.085,0.865-0.137c0.178-0.169,0.267-0.429,0.345-0.68
			c0.166-0.533,0.317-1.104,0.22-1.66C409.796,366.829,407.092,367.38,407.47,369.78z"/>
		<path style="fill:#FFFFFF;stroke:#000000;stroke-linecap:round;stroke-linejoin:round;stroke-miterlimit:10;" d="M392.976,364.786
			c-3.679-0.84-7.805,1.49-8.987,5.073"/>
		<path style="fill:#FFFFFF;stroke:#000000;stroke-linecap:round;stroke-linejoin:round;stroke-miterlimit:10;" d="M405.908,362.208
			c3.679-0.839,7.805,1.49,8.987,5.073"/>
		<path style="fill:none;stroke:#000000;stroke-linecap:round;stroke-linejoin:round;stroke-miterlimit:10;" d="M422.092,424
			c0,0-13,18.333-50.333,28"/>
		<path style="fill:none;stroke:#000000;stroke-linecap:round;stroke-linejoin:round;stroke-miterlimit:10;" d="M426.425,425.333
			c0,0-17.333,21.333-43.667,28.333"/>
		
			<line style="fill:none;stroke:#000000;stroke-linecap:round;stroke-linejoin:round;stroke-miterlimit:10;" x1="428.758" y1="444" x2="430.092" y2="452.333"/>
		<path style="fill:#FFFFFF;stroke:#000000;stroke-linecap:round;stroke-linejoin:round;stroke-miterlimit:10;" d="M402.425,381.333
			c0,0-5.667,0.667-6.667-0.667c-1-1.333,2-6,2-6"/>
		<path style="fill:#FFFFFF;stroke:#000000;stroke-linecap:round;stroke-linejoin:round;stroke-miterlimit:10;" d="M406.75,381.686
			c0,0-3.149,4.714-9.732,4.133C403.348,393.675,411.481,385.56,406.75,381.686z"/>
		<path style="stroke:#000000;stroke-linecap:round;stroke-linejoin:round;stroke-miterlimit:10;" d="M398.758,346
			c0,0-4,22.667-19.333,31.667c2-5,5.333-15.667,5.333-15.667s-10,9.333-8.667,25.667c-13.667-12.333-15.667-45.333-4.667-59
			c27-1,44.333,13.667,44.333,13.667l-0.667,15l-6.667-6.667l2.667,6.333C411.092,357,401.758,355.667,398.758,346z"/>
		<path style="stroke:#000000;stroke-linecap:round;stroke-linejoin:round;stroke-miterlimit:10;" d="M415.758,342.333
			c0,0,4.333-2.333,9.333,0.333c5,2.667,0.333,32,0.333,32L414.758,349L415.758,342.333z"/>
		<path style="stroke:#000000;stroke-linecap:round;stroke-linejoin:round;stroke-miterlimit:10;" d="M413.758,344.333
			c0,0,1.667-7,9.667-9.333c-3,4-5.667,9.333-5.667,9.333"/>
		<g>
			
				<circle style="fill:#FFFFFF;stroke:#000000;stroke-linecap:round;stroke-linejoin:round;stroke-miterlimit:10;" cx="388.358" cy="418.914" r="3.393"/>
			
				<circle style="fill:#FFFFFF;stroke:#000000;stroke-linecap:round;stroke-linejoin:round;stroke-miterlimit:10;" cx="412.903" cy="418.914" r="3.393"/>
			
				<circle style="fill:#FFFFFF;stroke:#000000;stroke-linecap:round;stroke-linejoin:round;stroke-miterlimit:10;" cx="394.044" cy="423.372" r="3.393"/>
			
				<circle style="fill:#FFFFFF;stroke:#000000;stroke-linecap:round;stroke-linejoin:round;stroke-miterlimit:10;" cx="407.242" cy="423.372" r="3.393"/>
			
				<circle style="fill:#FFFFFF;stroke:#000000;stroke-linecap:round;stroke-linejoin:round;stroke-miterlimit:10;" cx="400.759" cy="425.919" r="3.393"/>
		</g>
		<path style="fill:none;stroke:#000000;stroke-linecap:round;stroke-linejoin:round;stroke-miterlimit:10;" d="M430.429,368
			c0,0-3.289-1.862-4.382,1.937"/>
	</g>
	<g>
		<path style="fill:#FFFFFF;stroke:#000000;stroke-linecap:round;stroke-linejoin:round;stroke-miterlimit:10;" d="M86.091,98.116
			c0,0,0.919,12.99,0.131,15.614c-0.787,2.624-32.41,10.628-33.46,29.654c31.36,13.515,91.719,2.493,91.719,2.493
			s0.426-10.5-7.873-18.108c-9.447-8.66-23.881-8.923-25.98-13.121c-2.099-4.199-1.181-18.764-1.181-18.764"/>
		<path style="fill:#FFFFFF;stroke:#000000;stroke-linecap:round;stroke-linejoin:round;stroke-miterlimit:10;" d="M125.649,63.26
			c-0.064-0.102-0.225,0.064-0.157,0.162c0.069,0.098,0.213,0.096,0.332,0.083c6.23-0.676,12.386-2.035,18.322-4.045
			c0.949-0.322,1.912-0.67,2.7-1.29c-3.396-2.973-9.509-4.948-13.651-6.544c-4.377-1.687-8.484-2.627-13.104-3.439
			c-4.294-0.755-8.684-0.771-13.04-0.603C88.466,48.3,69.656,52.522,53.962,62.504c-1.158,0.736-1.76,1.262-2.514,2.409
			c5.642,0.26,11.284,0.519,16.925,0.779"/>
		<path style="fill:#FFFFFF;stroke:#000000;stroke-linecap:round;stroke-linejoin:round;stroke-miterlimit:10;" d="M65.587,53.74
			c1.118-8.386,5.759-18.839,12.315-24.14c1.226-0.992,2.527-1.897,3.925-2.622c3.556-1.844,7.598-2.453,11.558-3.024
			c2.637-0.38,5.293-0.756,7.954-0.646c5.785,0.238,11.396,2.844,15.513,6.938c4.118,4.094,7.829,9.741,10.623,15.758"/>
		<path style="fill:#FFFFFF;stroke:#000000;stroke-linecap:round;stroke-linejoin:round;stroke-miterlimit:10;" d="M146.527,57.915
			c-3.74-5.346-9.839-8.527-15.945-10.824c-15.896-5.981-33.975-7.199-49.818-1.079c-3.26,1.259-6.399,2.812-9.474,4.473
			c-4.379,2.365-8.637,4.951-12.753,7.748c-2.736,1.859-5.499,3.908-7.082,6.812c0,0,9.383-6.859,18.464-10.468"/>
		<path style="fill:#FFFFFF;stroke:#000000;stroke-linecap:round;stroke-linejoin:round;stroke-miterlimit:10;" d="M67.027,46.986
			c9.009-6.25,19.657-10.114,30.577-11.096"/>
		<path style="fill:#FFFFFF;stroke:#000000;stroke-linecap:round;stroke-linejoin:round;stroke-miterlimit:10;" d="M100.663,30.036
			c-0.885,0.941-1.736,1.947-2.246,3.134c-0.511,1.187-0.646,2.59-0.099,3.76c0.542,1.159,1.658,1.936,2.784,2.543
			c1.993,1.075,4.331,1.803,6.518,1.215c1.552-0.418,2.912-1.508,3.656-2.932c0.745-1.425,0.865-3.163,0.322-4.676
			c-0.712-1.986-2.423-3.423-4.117-4.682C105.099,26.629,102.425,28.163,100.663,30.036z"/>
		<path style="fill:#FFFFFF;stroke:#000000;stroke-linecap:round;stroke-linejoin:round;stroke-miterlimit:10;" d="M104.255,31.369
			c-0.899,0.269-1.882,0.601-2.353,1.413c-0.555,0.956-0.13,2.249,0.701,2.979c0.831,0.729,1.961,1.008,3.055,1.165
			c0.675,0.097,1.374,0.155,2.029-0.032c0.656-0.187,1.265-0.667,1.432-1.328c0.117-0.463,0.007-0.957-0.183-1.395
			c-0.373-0.858-1.122-1.602-2.047-1.742c-0.925-0.14-1.966,0.488-2.08,1.416c-0.114,0.929,0.987,1.828,1.81,1.384"/>
		<path style="fill:#FFFFFF;stroke:#000000;stroke-linecap:round;stroke-linejoin:round;stroke-miterlimit:10;" d="M112.008,36.082
			c4.238,0.542,8.367,1.919,12.081,4.028"/>
		<path style="stroke:#000000;stroke-linecap:round;stroke-linejoin:round;stroke-miterlimit:10;" d="M55.771,69.372
			c-1.17,2.294-2.095,5.349-0.321,7.215c-2.437,1.144-4.658,2.897-5.952,5.258c-1.294,2.361-1.543,5.372-0.264,7.74
			c1.279,2.369,4.216,3.845,6.798,3.084c-1.628,2.181-1.408,5.373,0.027,7.686c1.434,2.313,3.868,3.848,6.41,4.822
			c1.587,0.607,3.276,1.03,4.972,0.933c3.357-0.194,6.25-2.361,8.744-4.616c2.028-1.832,4.054-3.993,4.406-6.703
			c0.234-1.799-0.31-3.596-0.805-5.341c-3.284-11.572-7.284-34.175-7.596-34.554c-0.553-0.672-6.702,0.883-9.341,3.663
			C59.954,61.61,57.67,65.65,55.771,69.372z"/>
		<path style="stroke:#000000;stroke-linecap:round;stroke-linejoin:round;stroke-miterlimit:10;" d="M139.456,63.785
			c1.17,2.294,2.095,5.349,0.321,7.215c2.437,1.144,4.658,2.897,5.952,5.258c1.294,2.361,1.543,5.372,0.264,7.74
			c-1.279,2.368-4.216,3.845-6.798,3.084c1.628,2.181,1.408,5.373-0.027,7.686c-1.434,2.313-3.868,3.848-6.41,4.822
			c-1.587,0.607-3.276,1.03-4.972,0.932c-3.357-0.194-6.25-2.361-8.745-4.616c-2.027-1.832-4.054-3.993-4.406-6.703
			c-0.234-1.799,0.31-3.596,0.805-5.341c3.284-11.572,7.012-34.472,7.324-34.851c0.553-0.672,6.974,1.181,9.613,3.96
			C135.273,56.022,137.557,60.063,139.456,63.785z"/>
		<path style="fill:#FFFFFF;stroke:#000000;stroke-linecap:round;stroke-linejoin:round;stroke-miterlimit:10;" d="M68.989,64.304
			c-1.598-0.366-3.351,0.021-4.647,1.025c-1.296,1.004-2.108,2.606-2.152,4.244c-0.019,0.718,0.101,1.433,0.265,2.133
			c0.431,1.838,1.264,3.718,2.872,4.707c1.608,0.989,4.112,0.631,4.878-1.094"/>
		<path style="fill:#FFFFFF;stroke:#000000;stroke-linecap:round;stroke-linejoin:round;stroke-miterlimit:10;" d="M125.84,58.839
			c1.646-0.04,3.39,0.201,4.683,1.221c1.093,0.862,1.737,2.198,1.997,3.565c0.486,2.56-0.338,5.333-2.143,7.212
			s-4.544,2.813-7.121,2.43"/>
		<path style="fill:#FFFFFF;stroke:#000000;stroke-linecap:round;stroke-linejoin:round;stroke-miterlimit:10;" d="M123.316,49.345"
			/>
		<path style="fill:#FFFFFF;stroke:#000000;stroke-linecap:round;stroke-linejoin:round;stroke-miterlimit:10;" d="M122.569,48.386
			c2.649,9.783,3.277,21.259,0.407,30.979c-2.743,9.291-7.534,14.775-18.279,18.429c-9.172,3.118-28.366,0.859-31.614-8.445
			c-3.905-11.187-5.301-23.078-2.926-34.687c0,0,11.201-7.426,30.104-7.982C118.108,46.155,122.569,48.386,122.569,48.386z"/>
		<path style="fill:#FFFFFF;stroke:#000000;stroke-linecap:round;stroke-linejoin:round;stroke-miterlimit:10;" d="M86.057,65.336
			c0.123,0.777,0.622,1.477,1.278,1.691c0.291,0.095,0.631,0.086,0.865-0.137c0.178-0.169,0.267-0.429,0.345-0.68
			c0.166-0.533,0.317-1.104,0.22-1.66C88.383,62.385,85.679,62.937,86.057,65.336z"/>
		<path style="fill:#FFFFFF;stroke:#000000;stroke-linecap:round;stroke-linejoin:round;stroke-miterlimit:10;" d="M104.574,65.336
			c0.122,0.777,0.622,1.477,1.278,1.691c0.291,0.095,0.631,0.086,0.865-0.137c0.178-0.169,0.267-0.429,0.345-0.68
			c0.166-0.533,0.317-1.104,0.22-1.66C106.899,62.385,104.195,62.937,104.574,65.336z"/>
		<path style="fill:#FFFFFF;stroke:#000000;stroke-linecap:round;stroke-linejoin:round;stroke-miterlimit:10;" d="M90.079,56.343
			c-3.679-0.84-7.805,1.489-8.987,5.073"/>
		<path style="fill:#FFFFFF;stroke:#000000;stroke-linecap:round;stroke-linejoin:round;stroke-miterlimit:10;" d="M103.011,53.764
			c3.679-0.84,7.805,1.49,8.987,5.073"/>
		<path style="fill:#FFFFFF;stroke:#000000;stroke-linecap:round;stroke-linejoin:round;stroke-miterlimit:10;" d="M87.016,80.272
			c3.282,1.971,7.229,2.809,11.029,2.343"/>
		<path style="fill:#FFFFFF;stroke:#000000;stroke-linecap:round;stroke-linejoin:round;stroke-miterlimit:10;" d="M64.966,68.986
			c0,0,2.624-1.312,2.887,2.1"/>
		<path style="fill:#FFFFFF;stroke:#000000;stroke-linecap:round;stroke-linejoin:round;stroke-miterlimit:10;" d="M129.228,62.843
			c0,0-2.826-0.942-2.898,2.898"/>
		<polyline style="fill:none;stroke:#000000;stroke-linecap:round;stroke-linejoin:round;stroke-miterlimit:10;" points="
			86.223,113.73 98.294,128.557 110.628,114.649 		"/>
		<polyline style="fill:none;stroke:#000000;stroke-linecap:round;stroke-linejoin:round;stroke-miterlimit:10;" points="
			75.463,119.373 80.187,129.345 74.151,132.494 67.59,123.834 		"/>
		<polyline style="fill:none;stroke:#000000;stroke-linecap:round;stroke-linejoin:round;stroke-miterlimit:10;" points="
			123.703,120.643 119.551,129.082 124.275,131.707 130.825,123.668 		"/>
		<polyline style="fill:none;stroke:#000000;stroke-linecap:round;stroke-linejoin:round;stroke-miterlimit:10;" points="
			85.173,115.043 98.294,136.955 112.334,116.223 		"/>
		<path style="fill:#FFFFFF;stroke:#000000;stroke-linecap:round;stroke-linejoin:round;stroke-miterlimit:10;" d="M98.229,61.289
			c0,0,3.51,10.943,4.13,13.421c0.619,2.478-5.781,3.304-7.227,1.652c-2.065,1.445-4.13-2.271-1.652-2.684"/>
		<path style="fill:none;stroke:#000000;stroke-linecap:round;stroke-linejoin:round;stroke-miterlimit:10;" d="M146.846,58.17
			c0,0-14.992-8.716-25.819-10.346"/>
	</g>
</g>
<g id="DESIGNED_BY_FREEPIK">
	<g>
		<g id="XMLID_25_">
			<g id="XMLID_44_">
				<path id="XMLID_52_" style="fill:#ACB7C6;" d="M260.104,465.465c-0.432,0.443-0.803,0.931-1.109,1.453l-0.465-0.241
					c-0.067-0.298-0.349-0.503-0.659-0.466c-0.331,0.039-0.568,0.339-0.529,0.67c0.039,0.331,0.339,0.568,0.67,0.529
					c0.065-0.008,0.127-0.026,0.183-0.052l0.451,0.234c-0.251,0.554-0.433,1.139-0.539,1.744l0.746,0.132
					c0.23-1.306,0.85-2.507,1.792-3.473L260.104,465.465z"/>
				<path id="XMLID_51_" style="fill:#ACB7C6;" d="M265.592,463.163c-0.171,0-0.341,0.006-0.51,0.017l-0.074-0.626
					c0.188-0.149,0.296-0.389,0.266-0.645c-0.046-0.393-0.402-0.674-0.795-0.628c-0.393,0.046-0.674,0.402-0.628,0.795
					c0.03,0.254,0.19,0.461,0.405,0.564l0.074,0.624c-0.714,0.116-1.403,0.332-2.06,0.646l0.327,0.684
					c0.934-0.447,1.942-0.673,2.995-0.673c0.496,0,0.993,0.053,1.475,0.158l0.16-0.741
					C266.692,463.222,266.142,463.163,265.592,463.163z"/>
				<path id="XMLID_50_" style="fill:#ACB7C6;" d="M272.194,465.711c0.331-0.04,0.566-0.341,0.525-0.672
					c-0.04-0.331-0.341-0.566-0.672-0.526c-0.309,0.038-0.535,0.304-0.53,0.609l-0.416,0.363c-0.418-0.43-0.89-0.813-1.408-1.139
					l-0.404,0.641c1.134,0.715,2.02,1.726,2.563,2.925l0.69-0.313c-0.251-0.554-0.568-1.072-0.942-1.545l0.402-0.351
					C272.065,465.716,272.129,465.719,272.194,465.711z"/>
				<path id="XMLID_49_" style="fill:#ACB7C6;" d="M265.044,473.372c-0.386,0.023-0.775,0.035-1.157,0.035
					c-0.88,0-1.733-0.061-2.478-0.179c-0.39-0.062-0.846-0.155-1.27-0.292c1.046,1.861,3.069,3.125,5.388,3.125
					c2.855,0,5.262-1.916,5.95-4.504c-0.682,0.449-1.505,0.825-2.459,1.123C267.839,473.047,266.464,473.286,265.044,473.372z"/>
				<path id="XMLID_45_" style="fill:#ACB7C6;" d="M265.592,464.68c-3.352,0-6.08,2.666-6.08,5.943c0,0.426,0.046,0.849,0.137,1.261
					c0.674,0.483,2.706,0.89,5.348,0.731c2.88-0.173,5.297-0.957,6.672-2.159c-0.005-0.195-0.021-0.39-0.045-0.582
					C271.244,466.913,268.651,464.68,265.592,464.68z M263.432,471.194c-1.02,0-1.85-0.83-1.85-1.85c0-1.02,0.83-1.85,1.85-1.85
					s1.85,0.83,1.85,1.85C265.282,470.365,264.452,471.194,263.432,471.194z M268.17,470.286c-0.75,0-1.36-0.61-1.36-1.36
					s0.61-1.361,1.36-1.361c0.75,0,1.361,0.61,1.361,1.361S268.92,470.286,268.17,470.286z"/>
			</g>
			<path id="XMLID_42_" style="fill:#ACB7C6;" d="M281.595,466.547c-0.295-0.116-0.805-0.309-1.382-0.237
				c-0.551,0.069-0.844,0.341-0.844,1.007v0.866h2.228v1.717h-2.228v5.455h-1.932v-5.455h-1.339v-1.717h1.339v-0.888
				c0-1.68,0.896-2.783,2.568-2.783c0.642,0,1.157,0.122,1.59,0.308L281.595,466.547z"/>
			<path id="XMLID_40_" style="fill:#ACB7C6;" d="M286.298,469.879c-0.177-0.03-0.358-0.046-0.526-0.046
				c-0.896,0-1.51,0.548-1.51,1.614v3.908h-1.932v-7.172h1.873v0.785c0.451-0.673,1.14-0.977,2.021-0.977
				c0.414,0,0.848,0.128,1.094,0.337L286.298,469.879z"/>
			<path id="XMLID_37_" style="fill:#ACB7C6;" d="M293.965,471.757c0,0.222-0.015,0.489-0.037,0.651h-5.085
				c0.207,1.036,0.933,1.488,1.843,1.488c0.622,0,1.295-0.252,1.813-0.688l1.132,1.243c-0.814,0.748-1.85,1.088-3.057,1.088
				c-2.198,0-3.723-1.495-3.723-3.753c0-2.258,1.48-3.797,3.627-3.797C292.544,467.99,293.958,469.522,293.965,471.757z
				 M288.851,471.091h3.175c-0.177-0.918-0.733-1.436-1.561-1.436C289.554,469.655,289.021,470.203,288.851,471.091z"/>
			<path id="XMLID_34_" style="fill:#ACB7C6;" d="M301.618,471.757c0,0.222-0.015,0.489-0.037,0.651h-5.085
				c0.207,1.036,0.933,1.488,1.843,1.488c0.622,0,1.295-0.252,1.813-0.688l1.132,1.243c-0.814,0.748-1.85,1.088-3.057,1.088
				c-2.198,0-3.723-1.495-3.723-3.753c0-2.258,1.48-3.797,3.626-3.797C300.197,467.99,301.611,469.522,301.618,471.757z
				 M296.504,471.091h3.175c-0.178-0.918-0.733-1.436-1.562-1.436C297.207,469.655,296.674,470.203,296.504,471.091z"/>
			<path id="XMLID_31_" style="fill:#ACB7C6;" d="M309.964,471.764c0,2.154-1.495,3.775-3.471,3.775
				c-0.962,0-1.643-0.378-2.109-0.933v3.708h-1.924v-10.133h1.887v0.792c0.466-0.585,1.155-0.984,2.139-0.984
				C308.469,467.99,309.964,469.61,309.964,471.764z M304.287,471.764c0,1.132,0.747,1.976,1.843,1.976
				c1.14,0,1.85-0.881,1.85-1.976c0-1.095-0.71-1.976-1.85-1.976C305.035,469.788,304.287,470.632,304.287,471.764z"/>
			<path id="XMLID_28_" style="fill:#ACB7C6;" d="M313.068,465.836c0,0.696-0.54,1.229-1.236,1.229
				c-0.696,0-1.229-0.533-1.229-1.229c0-0.696,0.533-1.243,1.229-1.243C312.527,464.592,313.068,465.14,313.068,465.836z
				 M312.809,475.354h-1.932v-7.172h1.932V475.354z"/>
			<path id="XMLID_26_" style="fill:#ACB7C6;" d="M316.032,470.736l2.701-2.554h2.368l-3.479,3.375l3.501,3.797h-2.376l-2.716-2.901
				v2.901h-1.932v-10.658h1.932V470.736z"/>
		</g>
		<g>
			<path style="fill:#ACB7C6;" d="M184.412,475.289v-1.055c-0.527,0.718-1.391,1.23-2.387,1.23c-1.846,0-3.149-1.406-3.149-3.706
				c0-2.256,1.289-3.721,3.149-3.721c0.952,0,1.816,0.469,2.387,1.245v-3.765h1.099v9.77H184.412z M184.412,473.37v-3.208
				c-0.395-0.615-1.245-1.143-2.124-1.143c-1.421,0-2.27,1.172-2.27,2.739c0,1.567,0.85,2.724,2.27,2.724
				C183.167,474.483,184.017,473.986,184.412,473.37z"/>
			<path style="fill:#ACB7C6;" d="M186.932,471.744c0-2.051,1.465-3.706,3.486-3.706c2.139,0,3.398,1.67,3.398,3.794v0.279h-5.727
				c0.088,1.333,1.025,2.446,2.549,2.446c0.805,0,1.626-0.322,2.182-0.894l0.527,0.718c-0.703,0.703-1.655,1.084-2.813,1.084
				C188.44,475.465,186.932,473.956,186.932,471.744z M190.403,468.947c-1.509,0-2.256,1.274-2.314,2.358h4.643
				C192.718,470.25,192.014,468.947,190.403,468.947z"/>
			<path style="fill:#ACB7C6;" d="M194.607,474.351l0.571-0.791c0.469,0.542,1.362,1.011,2.329,1.011c1.084,0,1.67-0.513,1.67-1.216
				c0-1.714-4.38-0.659-4.38-3.281c0-1.098,0.952-2.036,2.636-2.036c1.201,0,2.051,0.454,2.622,1.026l-0.513,0.762
				c-0.424-0.513-1.201-0.894-2.109-0.894c-0.967,0-1.567,0.483-1.567,1.113c0,1.552,4.38,0.527,4.38,3.281
				c0,1.187-0.952,2.138-2.783,2.138C196.306,475.465,195.325,475.113,194.607,474.351z"/>
			<path style="fill:#ACB7C6;" d="M201.477,466.471c0-0.41,0.337-0.747,0.732-0.747c0.41,0,0.747,0.337,0.747,0.747
				c0,0.41-0.337,0.732-0.747,0.732C201.814,467.203,201.477,466.881,201.477,466.471z M201.667,475.289v-7.075h1.099v7.075H201.667
				z"/>
			<path style="fill:#ACB7C6;" d="M204.582,477.105l0.556-0.82c0.586,0.703,1.289,0.967,2.3,0.967c1.172,0,2.27-0.571,2.27-2.124
				v-1.011c-0.513,0.718-1.377,1.26-2.373,1.26c-1.845,0-3.149-1.377-3.149-3.662c0-2.27,1.289-3.677,3.149-3.677
				c0.952,0,1.802,0.469,2.373,1.245v-1.069h1.098v6.87c0,2.344-1.64,3.076-3.369,3.076
				C206.237,478.16,205.417,477.926,204.582,477.105z M209.709,473.253v-3.091c-0.381-0.615-1.23-1.143-2.109-1.143
				c-1.421,0-2.27,1.128-2.27,2.695c0,1.553,0.849,2.695,2.27,2.695C208.478,474.41,209.328,473.868,209.709,473.253z"/>
			<path style="fill:#ACB7C6;" d="M217.413,475.289v-4.629c0-1.245-0.63-1.641-1.582-1.641c-0.865,0-1.685,0.527-2.095,1.099v5.17
				h-1.099v-7.075h1.099v1.025c0.498-0.586,1.465-1.201,2.519-1.201c1.48,0,2.256,0.747,2.256,2.285v4.966H217.413z"/>
			<path style="fill:#ACB7C6;" d="M219.932,471.744c0-2.051,1.465-3.706,3.486-3.706c2.139,0,3.398,1.67,3.398,3.794v0.279h-5.727
				c0.088,1.333,1.025,2.446,2.549,2.446c0.806,0,1.626-0.322,2.183-0.894l0.527,0.718c-0.703,0.703-1.655,1.084-2.812,1.084
				C221.441,475.465,219.932,473.956,219.932,471.744z M223.404,468.947c-1.509,0-2.256,1.274-2.314,2.358h4.643
				C225.718,470.25,225.015,468.947,223.404,468.947z"/>
			<path style="fill:#ACB7C6;" d="M233.35,475.289v-1.055c-0.527,0.718-1.391,1.23-2.388,1.23c-1.846,0-3.149-1.406-3.149-3.706
				c0-2.256,1.289-3.721,3.149-3.721c0.952,0,1.817,0.469,2.388,1.245v-3.765h1.098v9.77H233.35z M233.35,473.37v-3.208
				c-0.396-0.615-1.245-1.143-2.124-1.143c-1.421,0-2.27,1.172-2.27,2.739c0,1.567,0.85,2.724,2.27,2.724
				C232.105,474.483,232.954,473.986,233.35,473.37z"/>
			<path style="fill:#ACB7C6;" d="M239.692,475.289v-9.77h1.099v3.765c0.572-0.776,1.421-1.245,2.388-1.245
				c1.845,0,3.149,1.465,3.149,3.721c0,2.299-1.304,3.706-3.149,3.706c-0.996,0-1.86-0.513-2.388-1.23v1.055H239.692z
				 M242.9,474.483c1.436,0,2.285-1.157,2.285-2.724c0-1.568-0.85-2.739-2.285-2.739c-0.864,0-1.728,0.527-2.109,1.143v3.208
				C241.171,473.986,242.036,474.483,242.9,474.483z"/>
			<path style="fill:#ACB7C6;" d="M247.528,477.061c0.161,0.073,0.425,0.117,0.601,0.117c0.483,0,0.806-0.161,1.055-0.747
				l0.469-1.069l-2.959-7.148h1.187l2.358,5.8l2.344-5.8h1.201l-3.545,8.51c-0.425,1.025-1.143,1.421-2.08,1.435
				c-0.234,0-0.601-0.044-0.805-0.103L247.528,477.061z"/>
		</g>
	</g>
</g>
</svg>
