<svg width="26" height="28" viewBox="0 0 26 28" fill="none" xmlns="http://www.w3.org/2000/svg">
<path d="M2.19995 6.8H4.59995M4.59995 6.8H23.8M4.59995 6.8V23.6C4.59995 24.2365 4.85281 24.847 5.30289 25.2971C5.75298 25.7471 6.36343 26 6.99995 26H19C19.6365 26 20.2469 25.7471 20.697 25.2971C21.1471 24.847 21.4 24.2365 21.4 23.6V6.8M8.19995 6.8V4.4C8.19995 3.76348 8.45281 3.15303 8.9029 2.70294C9.35298 2.25286 9.96343 2 10.6 2H15.4C16.0365 2 16.6469 2.25286 17.097 2.70294C17.5471 3.15303 17.8 3.76348 17.8 4.4V6.8M10.6 12.8V20M15.4 12.8V20" stroke="#DC3545" stroke-width="3" stroke-linecap="round" stroke-linejoin="round"/>
</svg>
