<svg width="28" height="29" viewBox="0 0 28 29" fill="none" xmlns="http://www.w3.org/2000/svg">
<path fill-rule="evenodd" clip-rule="evenodd" d="M11.3746 22.0856C17.0123 22.0856 21.5825 17.5147 21.5825 11.8762C21.5825 6.23769 17.0123 1.66679 11.3746 1.66679C5.73688 1.66679 1.16662 6.23769 1.16662 11.8762C1.16662 17.5147 5.73688 22.0856 11.3746 22.0856ZM11.3746 22.669C17.3344 22.669 22.1658 17.8369 22.1658 11.8762C22.1658 5.91549 17.3344 1.08339 11.3746 1.08339C5.41472 1.08339 0.583311 5.91549 0.583311 11.8762C0.583311 17.8369 5.41472 22.669 11.3746 22.669Z" fill="black"/>
<path fill-rule="evenodd" clip-rule="evenodd" d="M21.5825 11.8762C21.5825 17.5147 17.0123 22.0856 11.3746 22.0856C5.73688 22.0856 1.16662 17.5147 1.16662 11.8762C1.16662 6.23769 5.73688 1.66679 11.3746 1.66679C17.0123 1.66679 21.5825 6.23769 21.5825 11.8762ZM20.2681 15.5566C20.7518 14.3888 21.0008 13.137 21.0008 11.8729C21.0008 9.31996 19.9868 6.87155 18.1818 5.06633C16.3768 3.2611 13.9288 2.24694 11.3761 2.24694C8.82353 2.24694 6.37547 3.2611 4.5705 5.06633C2.76553 6.87155 1.75151 9.31996 1.75151 11.8729C1.75151 13.137 2.00045 14.3888 2.48414 15.5566C2.96782 16.7245 3.67677 17.7857 4.5705 18.6795C5.46423 19.5734 6.52524 20.2824 7.69295 20.7662C8.86067 21.2499 10.1122 21.4989 11.3761 21.4989C12.6401 21.4989 13.8916 21.2499 15.0593 20.7662C16.227 20.2824 17.2881 19.5734 18.1818 18.6795C19.0755 17.7857 19.7845 16.7245 20.2681 15.5566Z" fill="black"/>
<path fill-rule="evenodd" clip-rule="evenodd" d="M22.6742 10.5728C23.0027 13.4209 22.2437 16.2881 20.5493 18.6006C20.6207 18.6538 20.688 18.7105 20.7505 18.7739L27.4878 25.5121C27.8159 25.8405 28.0002 26.2858 28 26.7501C27.9998 27.2144 27.8153 27.6595 27.4869 27.9877C27.1586 28.3159 26.7133 28.5002 26.2491 28.5C25.7849 28.4998 25.3398 28.3152 25.0116 27.9868L18.2744 21.2486C18.2116 21.1847 18.1547 21.1179 18.1035 21.0482C15.7927 22.744 12.927 23.5048 10.0795 23.1784C7.2315 22.8519 4.61178 21.462 2.74443 19.2868C0.87708 17.1115 -0.100193 14.3113 0.00813113 11.4463C0.116455 8.58133 1.30239 5.8629 3.32867 3.83489C5.35494 1.80688 8.07213 0.618832 10.9366 0.508443C13.8011 0.398054 16.6016 1.37346 18.778 3.23952C20.9543 5.10558 22.3458 7.72467 22.6742 10.5728ZM11.3746 22.0856C17.0123 22.0856 21.5825 17.5147 21.5825 11.8762C21.5825 6.23769 17.0123 1.66679 11.3746 1.66679C5.73688 1.66679 1.16662 6.23769 1.16662 11.8762C1.16662 17.5147 5.73688 22.0856 11.3746 22.0856ZM21.0008 11.8729C21.0008 13.137 20.7518 14.3888 20.2681 15.5566C19.7845 16.7245 19.0755 17.7857 18.1818 18.6795C17.2881 19.5734 16.227 20.2824 15.0593 20.7662C13.8916 21.2499 12.6401 21.4989 11.3761 21.4989C10.1122 21.4989 8.86067 21.2499 7.69295 20.7662C6.52524 20.2824 5.46423 19.5734 4.5705 18.6795C3.67677 17.7857 2.96782 16.7245 2.48414 15.5566C2.00045 14.3888 1.75151 13.137 1.75151 11.8729C1.75151 9.31996 2.76553 6.87155 4.5705 5.06633C6.37547 3.2611 8.82353 2.24694 11.3761 2.24694C13.9288 2.24694 16.3768 3.2611 18.1818 5.06633C19.9868 6.87155 21.0008 9.31996 21.0008 11.8729ZM11.3746 20.3354C16.0458 20.3354 19.8326 16.5481 19.8326 11.8762C19.8326 7.20428 16.0458 3.41697 11.3746 3.41697C6.70334 3.41697 2.91656 7.20428 2.91656 11.8762C2.91656 16.5481 6.70334 20.3354 11.3746 20.3354Z" fill="black"/>
<path fill-rule="evenodd" clip-rule="evenodd" d="M19.8326 11.8762C19.8326 16.5481 16.0458 20.3354 11.3746 20.3354C6.70334 20.3354 2.91656 16.5481 2.91656 11.8762C2.91656 7.20428 6.70334 3.41697 11.3746 3.41697C16.0458 3.41697 19.8326 7.20428 19.8326 11.8762ZM11.3746 19.752C15.7237 19.752 19.2493 16.2259 19.2493 11.8762C19.2493 7.52648 15.7237 4.00036 11.3746 4.00036C7.02549 4.00036 3.49987 7.52648 3.49987 11.8762C3.49987 16.2259 7.02549 19.752 11.3746 19.752Z" fill="black"/>
</svg>
