<svg width="1510" height="18" viewBox="0 0 1510 18" fill="none" xmlns="http://www.w3.org/2000/svg">
<path d="M66.5652 8.90255C66.5652 8.90255 82.5467 1 99.3478 1C116.149 1 132.13 8.90255 132.13 8.90255M197.696 8.90255C197.696 8.90255 213.677 1 230.478 1C247.279 1 263.261 8.90255 263.261 8.90255M328.826 8.90255C328.826 8.90255 344.808 1 361.609 1C378.41 1 394.391 8.90255 394.391 8.90255M459.957 8.90255C459.957 8.90255 475.938 1 492.739 1C509.54 1 525.522 8.90255 525.522 8.90255M591.087 8.90255C591.087 8.90255 607.068 1 623.87 1C640.671 1 656.652 8.90255 656.652 8.90255M722.217 8.90255C722.217 8.90255 738.199 1 755 1C771.801 1 787.783 8.90255 787.783 8.90255M853.348 8.90255C853.348 8.90255 869.329 1 886.13 1C902.932 1 918.913 8.90255 918.913 8.90255M984.478 8.90255C984.478 8.90255 1000.46 1 1017.26 1C1034.06 1 1050.04 8.90255 1050.04 8.90255M1115.61 8.90255C1115.61 8.90255 1131.59 1 1148.39 1C1165.19 1 1181.17 8.90255 1181.17 8.90255M1246.74 8.90255C1246.74 8.90255 1262.72 1 1279.52 1C1296.32 1 1312.3 8.90255 1312.3 8.90255M1377.87 8.90255C1377.87 8.90255 1393.85 1 1410.65 1C1427.45 1 1443.43 8.90255 1443.43 8.90255M1 8.99066C1 8.99066 16.9815 16.8932 33.7826 16.8932C50.5837 16.8932 66.5652 8.99066 66.5652 8.99066M132.13 8.99066C132.13 8.99066 148.112 16.8932 164.913 16.8932C181.714 16.8932 197.696 8.99066 197.696 8.99066M263.261 9.09745C263.261 9.09745 279.242 17 296.043 17C312.845 17 328.826 9.09745 328.826 9.09745M394.391 9.09745C394.391 9.09745 410.373 17 427.174 17C443.975 17 459.957 9.09745 459.957 9.09745M525.522 9.09745C525.522 9.09745 541.503 17 558.304 17C575.105 17 591.087 9.09745 591.087 9.09745M656.652 9.09745C656.652 9.09745 672.634 17 689.435 17C706.236 17 722.217 9.09745 722.217 9.09745M787.783 9.09745C787.783 9.09745 803.764 17 820.565 17C837.366 17 853.348 9.09745 853.348 9.09745M918.913 9.09745C918.913 9.09745 934.895 17 951.696 17C968.497 17 984.478 9.09745 984.478 9.09745M1050.04 9.09745C1050.04 9.09745 1066.03 17 1082.83 17C1099.63 17 1115.61 9.09745 1115.61 9.09745M1181.17 9.09745C1181.17 9.09745 1197.16 17 1213.96 17C1230.76 17 1246.74 9.09745 1246.74 9.09745M1312.3 9.09745C1312.3 9.09745 1328.29 17 1345.09 17C1361.89 17 1377.87 9.09745 1377.87 9.09745M1443.43 9.09745C1443.43 9.09745 1459.42 17 1476.22 17C1493.02 17 1509 9.09745 1509 9.09745" stroke="#0D6EFD" stroke-width="1.5"/>
</svg>
